STARTFONT 2.1
FONT -FontForge-Archivo Narrow-Bold-R-Normal--22-210-75-75-P-106-ISO8859-1
SIZE 21 75 75
FONTBOUNDINGBOX 25 27 -4 -6
COMMENT "Generated by fontforge, http://fontforge.sourceforge.net"
COMMENT "Copyright (c) 2012, Omnibus-Type (www.omnibus-type.com|omnibus.type@gmail.com),with Reserved Font Name: Archivo"
STARTPROPERTIES 39
FOUNDRY "FontForge"
FAMILY_NAME "Archivo Narrow"
WEIGHT_NAME "Bold"
SLANT "R"
SETWIDTH_NAME "Normal"
ADD_STYLE_NAME ""
PIXEL_SIZE 22
POINT_SIZE 210
RESOLUTION_X 75
RESOLUTION_Y 75
SPACING "P"
AVERAGE_WIDTH 106
CHARSET_REGISTRY "ISO8859"
CHARSET_ENCODING "1"
FONTNAME_REGISTRY ""
CHARSET_COLLECTIONS "ISO8859-2 ISO8859-9 ISO8859-4 ISOLatin1Encoding"
FONT_NAME "ArchivoNarrow-Bold"
FACE_NAME "Archivo Narrow Bold"
FONT_VERSION "1.002; ttfautohint (v0.8)"
FONT_ASCENT 18
FONT_DESCENT 4
UNDERLINE_POSITION -1
UNDERLINE_THICKNESS 1
X_HEIGHT 11
CAP_HEIGHT 14
RAW_ASCENT 800
RAW_DESCENT 200
NORM_SPACE 5
RELATIVE_WEIGHT 70
RELATIVE_SETWIDTH 50
SUPERSCRIPT_X 0
SUPERSCRIPT_Y 10
SUPERSCRIPT_SIZE 14
SUBSCRIPT_X 0
SUBSCRIPT_Y 3
SUBSCRIPT_SIZE 14
FIGURE_WIDTH 10
AVG_LOWERCASE_WIDTH 98
AVG_UPPERCASE_WIDTH 123
ENDPROPERTIES
CHARS 416
STARTCHAR nonmarkingreturn
ENCODING 13
SWIDTH 0 0
DWIDTH 0 0
BBX 1 1 0 0
BITMAP
00
ENDCHAR
STARTCHAR space
ENCODING 32
SWIDTH 228 0
DWIDTH 5 0
BBX 1 1 0 0
BITMAP
00
ENDCHAR
STARTCHAR exclam
ENCODING 33
SWIDTH 272 0
DWIDTH 6 0
BBX 4 15 1 0
BITMAP
F0
F0
70
60
60
60
60
60
60
60
60
00
F0
F0
F0
ENDCHAR
STARTCHAR quotedbl
ENCODING 34
SWIDTH 389 0
DWIDTH 9 0
BBX 7 6 1 9
BITMAP
EE
EE
EE
EE
CC
CC
ENDCHAR
STARTCHAR numbersign
ENCODING 35
SWIDTH 456 0
DWIDTH 10 0
BBX 10 15 0 0
BITMAP
0DC0
1980
1980
7FC0
7FC0
1300
3300
3300
3200
FF80
FF80
6600
6600
6C00
6C00
ENDCHAR
STARTCHAR dollar
ENCODING 36
SWIDTH 456 0
DWIDTH 10 0
BBX 8 17 1 -1
BITMAP
18
18
18
7E
FF
DF
F8
FC
7E
1F
DB
DB
FF
7E
18
18
18
ENDCHAR
STARTCHAR percent
ENCODING 37
SWIDTH 729 0
DWIDTH 16 0
BBX 14 15 1 0
BITMAP
7838
FC30
CC60
CC40
CCC0
FD80
7980
0378
067C
06CC
0CCC
0CCC
18EC
307C
7078
ENDCHAR
STARTCHAR ampersand
ENCODING 38
SWIDTH 591 0
DWIDTH 13 0
BBX 12 15 1 0
BITMAP
3F00
7F80
F3C0
E1C0
E000
7000
3DF0
7DF0
E1C0
E1C0
E1C0
E1C0
F3C0
7F80
3F00
ENDCHAR
STARTCHAR quotesingle
ENCODING 39
SWIDTH 194 0
DWIDTH 4 0
BBX 3 6 1 9
BITMAP
E0
E0
E0
C0
C0
C0
ENDCHAR
STARTCHAR parenleft
ENCODING 40
SWIDTH 272 0
DWIDTH 6 0
BBX 5 20 1 -4
BITMAP
18
30
70
60
60
E0
C0
C0
C0
C0
C0
C0
C0
C0
E0
60
60
70
30
18
ENDCHAR
STARTCHAR parenright
ENCODING 41
SWIDTH 272 0
DWIDTH 6 0
BBX 5 20 0 -4
BITMAP
C0
60
70
30
30
38
18
18
18
18
18
18
18
18
38
30
30
70
60
C0
ENDCHAR
STARTCHAR asterisk
ENCODING 42
SWIDTH 318 0
DWIDTH 7 0
BBX 7 7 0 8
BITMAP
10
54
FE
38
FE
54
10
ENDCHAR
STARTCHAR plus
ENCODING 43
SWIDTH 479 0
DWIDTH 11 0
BBX 9 12 1 0
BITMAP
1800
1800
1800
1800
1800
FF80
FF80
1800
1800
1800
1800
1800
ENDCHAR
STARTCHAR comma
ENCODING 44
SWIDTH 228 0
DWIDTH 5 0
BBX 3 7 1 -4
BITMAP
E0
E0
E0
60
40
C0
C0
ENDCHAR
STARTCHAR hyphen
ENCODING 45
SWIDTH 272 0
DWIDTH 6 0
BBX 6 2 0 5
BITMAP
FC
FC
ENDCHAR
STARTCHAR period
ENCODING 46
SWIDTH 228 0
DWIDTH 5 0
BBX 3 3 1 0
BITMAP
E0
E0
E0
ENDCHAR
STARTCHAR slash
ENCODING 47
SWIDTH 228 0
DWIDTH 5 0
BBX 5 17 0 -1
BITMAP
18
18
18
10
30
30
30
30
30
60
60
60
60
60
40
C0
C0
ENDCHAR
STARTCHAR zero
ENCODING 48
SWIDTH 456 0
DWIDTH 10 0
BBX 8 15 1 0
BITMAP
3C
7E
E7
E7
C3
C3
C3
C3
C3
C3
C3
E7
E7
7E
3C
ENDCHAR
STARTCHAR one
ENCODING 49
SWIDTH 456 0
DWIDTH 10 0
BBX 9 15 1 0
BITMAP
1C00
7C00
FC00
1C00
1C00
1C00
1C00
1C00
1C00
1C00
1C00
1C00
1C00
FF80
FF80
ENDCHAR
STARTCHAR two
ENCODING 50
SWIDTH 456 0
DWIDTH 10 0
BBX 8 15 1 0
BITMAP
3C
7E
E7
C3
C3
03
07
0E
1C
38
70
E0
E0
FF
FF
ENDCHAR
STARTCHAR three
ENCODING 51
SWIDTH 456 0
DWIDTH 10 0
BBX 8 15 1 0
BITMAP
3C
7E
E7
C3
03
07
1E
1E
07
03
C3
C3
E7
7E
3C
ENDCHAR
STARTCHAR four
ENCODING 52
SWIDTH 456 0
DWIDTH 10 0
BBX 10 15 0 0
BITMAP
0600
0C00
0D00
1900
1B00
3300
3300
6300
6300
FFC0
FFC0
0300
0300
0300
0300
ENDCHAR
STARTCHAR five
ENCODING 53
SWIDTH 456 0
DWIDTH 10 0
BBX 8 15 1 0
BITMAP
FF
FF
C0
C0
C0
FC
FE
C7
03
03
C3
C3
E7
7E
3C
ENDCHAR
STARTCHAR six
ENCODING 54
SWIDTH 456 0
DWIDTH 10 0
BBX 8 15 1 0
BITMAP
3C
7E
E7
C3
C0
DC
FE
E7
C3
C3
C3
C3
E7
7E
3C
ENDCHAR
STARTCHAR seven
ENCODING 55
SWIDTH 456 0
DWIDTH 10 0
BBX 9 15 1 0
BITMAP
FF80
FF80
0700
0600
0E00
0C00
1C00
1800
3800
3800
3000
7000
7000
6000
6000
ENDCHAR
STARTCHAR eight
ENCODING 56
SWIDTH 456 0
DWIDTH 10 0
BBX 8 15 1 0
BITMAP
3C
7E
E7
C3
C3
E7
7E
7E
E7
C3
C3
C3
E7
7E
3C
ENDCHAR
STARTCHAR nine
ENCODING 57
SWIDTH 456 0
DWIDTH 10 0
BBX 8 15 1 0
BITMAP
3C
7E
E7
C3
C3
C3
E7
7F
3B
03
C3
C3
E7
7E
3C
ENDCHAR
STARTCHAR colon
ENCODING 58
SWIDTH 272 0
DWIDTH 6 0
BBX 3 12 1 0
BITMAP
E0
E0
E0
00
00
00
00
00
00
E0
E0
E0
ENDCHAR
STARTCHAR semicolon
ENCODING 59
SWIDTH 272 0
DWIDTH 6 0
BBX 3 16 1 -4
BITMAP
E0
E0
E0
00
00
00
00
00
00
E0
E0
E0
60
60
40
C0
ENDCHAR
STARTCHAR less
ENCODING 60
SWIDTH 479 0
DWIDTH 11 0
BBX 9 12 1 0
BITMAP
0080
0380
0F80
3E00
F800
E000
E000
F800
3E00
1F80
0780
0180
ENDCHAR
STARTCHAR equal
ENCODING 61
SWIDTH 479 0
DWIDTH 11 0
BBX 9 7 1 2
BITMAP
FF80
FF80
0000
0000
0000
FF80
FF80
ENDCHAR
STARTCHAR greater
ENCODING 62
SWIDTH 479 0
DWIDTH 11 0
BBX 9 12 1 0
BITMAP
8000
C000
F000
7C00
1F00
0780
0380
0F80
3E00
F800
E000
8000
ENDCHAR
STARTCHAR question
ENCODING 63
SWIDTH 500 0
DWIDTH 11 0
BBX 9 15 1 0
BITMAP
3E00
7F00
F780
E380
E380
0380
0700
0F00
0E00
1C00
1C00
0000
1C00
1C00
1C00
ENDCHAR
STARTCHAR at
ENCODING 64
SWIDTH 799 0
DWIDTH 18 0
BBX 16 19 1 -4
BITMAP
07E0
1FF8
381C
63C6
67E2
C673
C673
8073
83F3
87F3
8E73
8E73
8E76
CFFE
C738
6000
7000
3FE0
0FE0
ENDCHAR
STARTCHAR A
ENCODING 65
SWIDTH 591 0
DWIDTH 13 0
BBX 13 15 0 0
BITMAP
0700
0F80
0D80
0D80
1DC0
1DC0
18C0
38E0
38E0
3060
7FF0
7FF0
6030
E038
E038
ENDCHAR
STARTCHAR B
ENCODING 66
SWIDTH 591 0
DWIDTH 13 0
BBX 11 15 1 0
BITMAP
FF80
FFC0
E1E0
E0E0
E0E0
E1C0
FFC0
FFC0
E1E0
E0E0
E0E0
E0E0
E1E0
FFC0
FF80
ENDCHAR
STARTCHAR C
ENCODING 67
SWIDTH 591 0
DWIDTH 13 0
BBX 11 15 1 0
BITMAP
1F00
3FC0
79E0
F0E0
E0E0
E060
E000
E000
E000
E060
E0E0
F0E0
79E0
3FC0
1F00
ENDCHAR
STARTCHAR D
ENCODING 68
SWIDTH 591 0
DWIDTH 13 0
BBX 11 15 1 0
BITMAP
FF00
FF80
E3C0
E0E0
E0E0
E0E0
E0E0
E0E0
E0E0
E0E0
E0E0
E1E0
E3C0
FF80
FF00
ENDCHAR
STARTCHAR E
ENCODING 69
SWIDTH 546 0
DWIDTH 12 0
BBX 10 15 1 0
BITMAP
FFC0
FFC0
E000
E000
E000
E000
FF80
FF80
E000
E000
E000
E000
E000
FFC0
FFC0
ENDCHAR
STARTCHAR F
ENCODING 70
SWIDTH 500 0
DWIDTH 11 0
BBX 9 15 1 0
BITMAP
FF80
FF80
E000
E000
E000
E000
FF00
FF00
E000
E000
E000
E000
E000
E000
E000
ENDCHAR
STARTCHAR G
ENCODING 71
SWIDTH 638 0
DWIDTH 14 0
BBX 12 15 1 0
BITMAP
1F80
3FC0
70E0
E070
E070
E000
E000
E3F0
E3F0
E070
E070
E0F0
71F0
3FB0
1F30
ENDCHAR
STARTCHAR H
ENCODING 72
SWIDTH 591 0
DWIDTH 13 0
BBX 11 15 1 0
BITMAP
E0E0
E0E0
E0E0
E0E0
E0E0
E0E0
FFE0
FFE0
E0E0
E0E0
E0E0
E0E0
E0E0
E0E0
E0E0
ENDCHAR
STARTCHAR I
ENCODING 73
SWIDTH 228 0
DWIDTH 5 0
BBX 3 15 1 0
BITMAP
E0
E0
E0
E0
E0
E0
E0
E0
E0
E0
E0
E0
E0
E0
E0
ENDCHAR
STARTCHAR J
ENCODING 74
SWIDTH 456 0
DWIDTH 10 0
BBX 9 15 0 0
BITMAP
0380
0380
0380
0380
0380
0380
0380
0380
0380
0380
E380
E380
F780
7F00
3E00
ENDCHAR
STARTCHAR K
ENCODING 75
SWIDTH 591 0
DWIDTH 13 0
BBX 12 15 1 0
BITMAP
E0F0
E0E0
E1C0
E380
E780
E700
EF00
FF00
FB80
FB80
F1C0
E1C0
E0E0
E0E0
E070
ENDCHAR
STARTCHAR L
ENCODING 76
SWIDTH 500 0
DWIDTH 11 0
BBX 10 15 1 0
BITMAP
E000
E000
E000
E000
E000
E000
E000
E000
E000
E000
E000
E000
FFC0
FFC0
FFC0
ENDCHAR
STARTCHAR M
ENCODING 77
SWIDTH 683 0
DWIDTH 15 0
BBX 13 15 1 0
BITMAP
F078
F078
F8F8
F8F8
F8F8
F8F8
FDF8
EDB8
EDB8
EDB8
EDB8
EFB8
E738
E738
E738
ENDCHAR
STARTCHAR N
ENCODING 78
SWIDTH 591 0
DWIDTH 13 0
BBX 11 15 1 0
BITMAP
E0E0
F0E0
F0E0
F8E0
F8E0
FCE0
FCE0
EEE0
EFE0
E7E0
E3E0
E3E0
E1E0
E1E0
E0E0
ENDCHAR
STARTCHAR O
ENCODING 79
SWIDTH 638 0
DWIDTH 14 0
BBX 12 15 1 0
BITMAP
1F80
3FC0
70E0
E070
E070
E070
E070
E070
E070
E070
E070
E070
70E0
3FC0
1F80
ENDCHAR
STARTCHAR P
ENCODING 80
SWIDTH 546 0
DWIDTH 12 0
BBX 10 15 1 0
BITMAP
FF00
FF80
E1C0
E0C0
E0C0
E0C0
E1C0
FF80
FF00
E000
E000
E000
E000
E000
E000
ENDCHAR
STARTCHAR Q
ENCODING 81
SWIDTH 638 0
DWIDTH 14 0
BBX 12 17 1 -2
BITMAP
1F80
3FC0
70E0
E070
E070
E070
E070
E070
E070
E070
E070
E070
70E0
3FC0
1F80
01C0
00E0
ENDCHAR
STARTCHAR R
ENCODING 82
SWIDTH 591 0
DWIDTH 13 0
BBX 12 15 1 0
BITMAP
FF80
FFC0
E0E0
E0E0
E0E0
E0E0
FFC0
FF80
E380
E180
E1C0
E1C0
E0E0
E0E0
E0F0
ENDCHAR
STARTCHAR S
ENCODING 83
SWIDTH 546 0
DWIDTH 12 0
BBX 10 15 1 0
BITMAP
3F00
7F80
F3C0
E1C0
E000
F000
7E00
3F80
0FC0
01C0
E1C0
E1C0
F3C0
7F80
3F00
ENDCHAR
STARTCHAR T
ENCODING 84
SWIDTH 500 0
DWIDTH 11 0
BBX 11 15 0 0
BITMAP
FFE0
FFE0
0E00
0E00
0E00
0E00
0E00
0E00
0E00
0E00
0E00
0E00
0E00
0E00
0E00
ENDCHAR
STARTCHAR U
ENCODING 85
SWIDTH 591 0
DWIDTH 13 0
BBX 11 15 1 0
BITMAP
E0E0
E0E0
E0E0
E0E0
E0E0
E0E0
E0E0
E0E0
E0E0
E0E0
E0E0
E0E0
71C0
7FC0
1F00
ENDCHAR
STARTCHAR V
ENCODING 86
SWIDTH 546 0
DWIDTH 12 0
BBX 12 15 0 0
BITMAP
E070
E070
7060
70E0
70E0
30C0
39C0
39C0
1980
1D80
1F80
0F80
0F00
0F00
0F00
ENDCHAR
STARTCHAR W
ENCODING 87
SWIDTH 773 0
DWIDTH 17 0
BBX 17 15 0 0
BITMAP
E1C380
E1C380
61C300
636300
736300
736700
736700
336600
3E3E00
3E3E00
3E3E00
1E3C00
1E3C00
1C1C00
1C1C00
ENDCHAR
STARTCHAR X
ENCODING 88
SWIDTH 546 0
DWIDTH 12 0
BBX 12 15 0 0
BITMAP
F0F0
70E0
39C0
39C0
1F80
1F80
0F00
0F00
0F00
1F80
39C0
39C0
70E0
70E0
E070
ENDCHAR
STARTCHAR Y
ENCODING 89
SWIDTH 546 0
DWIDTH 12 0
BBX 12 15 0 0
BITMAP
E070
70E0
70E0
39C0
39C0
1F80
1F80
0F00
0F00
0600
0600
0600
0600
0600
0600
ENDCHAR
STARTCHAR Z
ENCODING 90
SWIDTH 500 0
DWIDTH 11 0
BBX 9 15 1 0
BITMAP
FF80
FF80
0780
0700
0F00
0E00
1C00
1C00
3800
3800
7000
7000
E000
FF80
FF80
ENDCHAR
STARTCHAR bracketleft
ENCODING 91
SWIDTH 272 0
DWIDTH 6 0
BBX 4 20 1 -4
BITMAP
F0
F0
E0
E0
E0
E0
E0
E0
E0
E0
E0
E0
E0
E0
E0
E0
E0
E0
F0
F0
ENDCHAR
STARTCHAR backslash
ENCODING 92
SWIDTH 228 0
DWIDTH 5 0
BBX 5 17 0 -1
BITMAP
C0
C0
C0
60
60
60
60
60
20
30
30
30
30
30
10
18
18
ENDCHAR
STARTCHAR bracketright
ENCODING 93
SWIDTH 272 0
DWIDTH 6 0
BBX 4 20 1 -4
BITMAP
F0
F0
70
70
70
70
70
70
70
70
70
70
70
70
70
70
70
70
F0
F0
ENDCHAR
STARTCHAR asciicircum
ENCODING 94
SWIDTH 479 0
DWIDTH 11 0
BBX 9 8 1 7
BITMAP
1C00
1C00
3E00
3600
7600
6700
6300
E380
ENDCHAR
STARTCHAR underscore
ENCODING 95
SWIDTH 456 0
DWIDTH 10 0
BBX 10 2 0 -3
BITMAP
FFC0
FFC0
ENDCHAR
STARTCHAR grave
ENCODING 96
SWIDTH 272 0
DWIDTH 6 0
BBX 5 3 0 13
BITMAP
E0
30
38
ENDCHAR
STARTCHAR a
ENCODING 97
SWIDTH 456 0
DWIDTH 10 0
BBX 10 12 0 0
BITMAP
1E00
7F00
7380
6380
0380
3F80
7F80
F380
E380
E780
7FC0
39C0
ENDCHAR
STARTCHAR b
ENCODING 98
SWIDTH 500 0
DWIDTH 11 0
BBX 9 16 1 0
BITMAP
E000
E000
E000
E000
EE00
FF00
F780
E380
E380
E380
E380
E380
E380
F780
FF00
CE00
ENDCHAR
STARTCHAR c
ENCODING 99
SWIDTH 456 0
DWIDTH 10 0
BBX 8 12 1 0
BITMAP
3C
7E
F7
E3
E3
E0
E0
E3
E3
F7
7E
3C
ENDCHAR
STARTCHAR d
ENCODING 100
SWIDTH 500 0
DWIDTH 11 0
BBX 9 16 1 0
BITMAP
0380
0380
0380
0380
3B80
7F80
F780
E380
E380
E380
E380
E380
E380
F780
7F80
3980
ENDCHAR
STARTCHAR e
ENCODING 101
SWIDTH 456 0
DWIDTH 10 0
BBX 8 12 1 0
BITMAP
3C
7E
E7
C3
C3
FF
FF
C0
C3
E7
7E
3C
ENDCHAR
STARTCHAR f
ENCODING 102
SWIDTH 272 0
DWIDTH 6 0
BBX 6 16 0 0
BITMAP
3C
3C
70
70
FC
FC
70
70
70
70
70
70
70
70
70
70
ENDCHAR
STARTCHAR g
ENCODING 103
SWIDTH 500 0
DWIDTH 11 0
BBX 11 18 0 -4
BITMAP
0060
00E0
1FC0
3F80
7180
71C0
71C0
71C0
3F80
3F00
7000
7000
7FC0
7FE0
E0E0
E0E0
FFC0
7F80
ENDCHAR
STARTCHAR h
ENCODING 104
SWIDTH 500 0
DWIDTH 11 0
BBX 9 16 1 0
BITMAP
E000
E000
E000
E000
EF00
FF00
F380
E380
E380
E380
E380
E380
E380
E380
E380
E380
ENDCHAR
STARTCHAR i
ENCODING 105
SWIDTH 228 0
DWIDTH 5 0
BBX 3 16 1 0
BITMAP
E0
E0
00
00
E0
E0
E0
E0
E0
E0
E0
E0
E0
E0
E0
E0
ENDCHAR
STARTCHAR j
ENCODING 106
SWIDTH 228 0
DWIDTH 5 0
BBX 5 20 -1 -4
BITMAP
38
38
00
00
38
38
38
38
38
38
38
38
38
38
38
38
38
38
F8
F0
ENDCHAR
STARTCHAR k
ENCODING 107
SWIDTH 456 0
DWIDTH 10 0
BBX 9 16 1 0
BITMAP
E000
E000
E000
E000
E380
E700
EE00
EC00
FC00
FC00
FC00
EE00
EE00
E700
E700
E380
ENDCHAR
STARTCHAR l
ENCODING 108
SWIDTH 228 0
DWIDTH 5 0
BBX 3 16 1 0
BITMAP
E0
E0
E0
E0
E0
E0
E0
E0
E0
E0
E0
E0
E0
E0
E0
E0
ENDCHAR
STARTCHAR m
ENCODING 109
SWIDTH 729 0
DWIDTH 16 0
BBX 14 12 1 0
BITMAP
CE78
FFF8
F79C
E31C
E31C
E31C
E31C
E31C
E31C
E31C
E31C
E31C
ENDCHAR
STARTCHAR n
ENCODING 110
SWIDTH 500 0
DWIDTH 11 0
BBX 9 12 1 0
BITMAP
CF00
FF00
F380
E380
E380
E380
E380
E380
E380
E380
E380
E380
ENDCHAR
STARTCHAR o
ENCODING 111
SWIDTH 500 0
DWIDTH 11 0
BBX 9 12 1 0
BITMAP
3E00
7F00
F780
E380
E380
E380
E380
E380
E380
F780
7F00
3E00
ENDCHAR
STARTCHAR p
ENCODING 112
SWIDTH 500 0
DWIDTH 11 0
BBX 9 16 1 -4
BITMAP
CE00
FF00
F780
E380
E380
E380
E380
E380
E380
F780
FF00
EE00
E000
E000
E000
E000
ENDCHAR
STARTCHAR q
ENCODING 113
SWIDTH 500 0
DWIDTH 11 0
BBX 9 16 1 -4
BITMAP
3980
7F80
F780
E380
E380
E380
E380
E380
E380
F780
7F80
3B80
0380
0380
0380
0380
ENDCHAR
STARTCHAR r
ENCODING 114
SWIDTH 318 0
DWIDTH 7 0
BBX 6 12 1 0
BITMAP
FC
FC
F0
E0
E0
E0
E0
E0
E0
E0
E0
E0
ENDCHAR
STARTCHAR s
ENCODING 115
SWIDTH 456 0
DWIDTH 10 0
BBX 8 12 1 0
BITMAP
3C
7E
E7
C3
F0
7E
3F
07
C3
E7
7E
3C
ENDCHAR
STARTCHAR t
ENCODING 116
SWIDTH 272 0
DWIDTH 6 0
BBX 6 15 0 0
BITMAP
30
30
70
FC
FC
70
70
70
70
70
70
70
70
3C
3C
ENDCHAR
STARTCHAR u
ENCODING 117
SWIDTH 500 0
DWIDTH 11 0
BBX 9 12 1 0
BITMAP
E380
E380
E380
E380
E380
E380
E380
E380
E380
F780
7F80
3980
ENDCHAR
STARTCHAR v
ENCODING 118
SWIDTH 456 0
DWIDTH 10 0
BBX 10 12 0 0
BITMAP
E1C0
E1C0
6180
7380
7380
3300
3300
3F00
1E00
1E00
1E00
0C00
ENDCHAR
STARTCHAR w
ENCODING 119
SWIDTH 638 0
DWIDTH 14 0
BBX 14 12 0 0
BITMAP
E01C
E31C
6798
6798
77B8
77B8
37B0
3CF0
3CF0
3CF0
3CF0
1CE0
ENDCHAR
STARTCHAR x
ENCODING 120
SWIDTH 456 0
DWIDTH 10 0
BBX 10 12 0 0
BITMAP
E1C0
7380
3300
3F00
1E00
1E00
1E00
1F00
3F00
7380
7380
E1C0
ENDCHAR
STARTCHAR y
ENCODING 121
SWIDTH 456 0
DWIDTH 10 0
BBX 10 16 0 -4
BITMAP
E1C0
61C0
7180
7380
3380
3B00
3B00
1B00
1F00
1E00
1E00
0E00
0C00
1C00
7800
7000
ENDCHAR
STARTCHAR z
ENCODING 122
SWIDTH 410 0
DWIDTH 9 0
BBX 7 12 1 0
BITMAP
FE
FE
0E
1C
1C
38
38
70
70
E0
FE
FE
ENDCHAR
STARTCHAR braceleft
ENCODING 123
SWIDTH 318 0
DWIDTH 7 0
BBX 6 20 1 -4
BITMAP
1C
3C
70
70
70
70
70
70
70
E0
E0
60
70
70
70
70
70
70
3C
1C
ENDCHAR
STARTCHAR bar
ENCODING 124
SWIDTH 229 0
DWIDTH 5 0
BBX 2 20 2 -4
BITMAP
C0
C0
C0
C0
C0
C0
C0
C0
C0
C0
C0
C0
C0
C0
C0
C0
C0
C0
C0
C0
ENDCHAR
STARTCHAR braceright
ENCODING 125
SWIDTH 318 0
DWIDTH 7 0
BBX 6 20 0 -4
BITMAP
E0
F0
38
38
38
38
38
38
38
1C
1C
18
38
38
38
38
38
38
F0
E0
ENDCHAR
STARTCHAR asciitilde
ENCODING 126
SWIDTH 479 0
DWIDTH 11 0
BBX 9 4 1 5
BITMAP
7080
F980
9F80
8700
ENDCHAR
STARTCHAR uni00A0
ENCODING 160
SWIDTH 228 0
DWIDTH 5 0
BBX 1 1 0 0
BITMAP
00
ENDCHAR
STARTCHAR exclamdown
ENCODING 161
SWIDTH 272 0
DWIDTH 6 0
BBX 4 16 1 -4
BITMAP
F0
F0
F0
00
00
60
60
60
60
60
60
60
60
70
F0
F0
ENDCHAR
STARTCHAR cent
ENCODING 162
SWIDTH 456 0
DWIDTH 10 0
BBX 8 17 1 -1
BITMAP
08
08
1C
7E
7F
EB
CB
C8
C8
C8
EB
EB
7F
7E
08
08
08
ENDCHAR
STARTCHAR sterling
ENCODING 163
SWIDTH 456 0
DWIDTH 10 0
BBX 10 15 0 0
BITMAP
1F00
3F80
3B80
31C0
3000
3000
FE00
FE00
3000
3000
3000
3000
3000
FF80
FF80
ENDCHAR
STARTCHAR currency
ENCODING 164
SWIDTH 456 0
DWIDTH 10 0
BBX 10 10 0 2
BITMAP
5E80
FFC0
7180
6180
C0C0
40C0
6180
7380
FFC0
5E80
ENDCHAR
STARTCHAR yen
ENCODING 165
SWIDTH 456 0
DWIDTH 10 0
BBX 10 15 0 0
BITMAP
E1C0
6180
7380
3300
3B00
1E00
7F80
7F80
0C00
0C00
7F80
7F80
0C00
0C00
0C00
ENDCHAR
STARTCHAR brokenbar
ENCODING 166
SWIDTH 229 0
DWIDTH 5 0
BBX 2 20 2 -4
BITMAP
C0
C0
C0
C0
C0
C0
C0
C0
00
00
00
00
C0
C0
C0
C0
C0
C0
C0
C0
ENDCHAR
STARTCHAR section
ENCODING 167
SWIDTH 456 0
DWIDTH 10 0
BBX 8 19 1 -4
BITMAP
3C
7F
E7
E7
E0
78
7E
FF
C7
E3
E3
7B
3E
0F
07
E7
E7
7F
3C
ENDCHAR
STARTCHAR dieresis
ENCODING 168
SWIDTH 272 0
DWIDTH 6 0
BBX 6 2 0 14
BITMAP
CC
CC
ENDCHAR
STARTCHAR copyright
ENCODING 169
SWIDTH 604 0
DWIDTH 13 0
BBX 13 15 0 0
BITMAP
0F80
1060
2030
4790
4FD8
5CC8
D8C8
D808
D8C8
5CC8
4F98
4790
2030
1060
0F80
ENDCHAR
STARTCHAR ordfeminine
ENCODING 170
SWIDTH 303 0
DWIDTH 7 0
BBX 7 8 0 8
BITMAP
38
7C
6C
0C
7C
EC
CC
7E
ENDCHAR
STARTCHAR guillemotleft
ENCODING 171
SWIDTH 456 0
DWIDTH 10 0
BBX 9 9 0 3
BITMAP
1980
3B80
3300
7700
EE00
7700
3300
3B80
1980
ENDCHAR
STARTCHAR logicalnot
ENCODING 172
SWIDTH 479 0
DWIDTH 11 0
BBX 9 5 1 5
BITMAP
FF80
FF80
0380
0380
0380
ENDCHAR
STARTCHAR uni00AD
ENCODING 173
SWIDTH 272 0
DWIDTH 6 0
BBX 6 2 0 5
BITMAP
FC
FC
ENDCHAR
STARTCHAR registered
ENCODING 174
SWIDTH 604 0
DWIDTH 13 0
BBX 13 15 0 0
BITMAP
0F80
1060
2030
4F90
4FD8
4CC8
CF88
CF88
CDC8
4CC8
4CD8
4CD0
2030
1060
0F80
ENDCHAR
STARTCHAR macron
ENCODING 175
SWIDTH 272 0
DWIDTH 6 0
BBX 6 2 0 13
BITMAP
FC
FC
ENDCHAR
STARTCHAR degree
ENCODING 176
SWIDTH 399 0
DWIDTH 9 0
BBX 6 7 1 8
BITMAP
38
7C
C4
C4
C4
7C
38
ENDCHAR
STARTCHAR plusminus
ENCODING 177
SWIDTH 548 0
DWIDTH 12 0
BBX 9 13 2 0
BITMAP
1800
1800
1800
1800
FF80
FF80
1800
1800
1800
1800
0000
FF80
FF80
ENDCHAR
STARTCHAR twosuperior
ENCODING 178
SWIDTH 272 0
DWIDTH 6 0
BBX 6 10 0 6
BITMAP
78
78
CC
C8
18
30
20
60
FC
FC
ENDCHAR
STARTCHAR threesuperior
ENCODING 179
SWIDTH 272 0
DWIDTH 6 0
BBX 6 10 0 6
BITMAP
78
78
CC
08
38
38
0C
CC
78
78
ENDCHAR
STARTCHAR acute
ENCODING 180
SWIDTH 272 0
DWIDTH 6 0
BBX 5 3 1 13
BITMAP
38
60
E0
ENDCHAR
STARTCHAR mu
ENCODING 181
SWIDTH 500 0
DWIDTH 11 0
BBX 9 16 1 -4
BITMAP
E380
E380
E380
E380
E380
E380
E380
E380
E380
E780
FF80
F980
E000
E000
E000
E000
ENDCHAR
STARTCHAR paragraph
ENCODING 182
SWIDTH 456 0
DWIDTH 10 0
BBX 10 19 0 -4
BITMAP
1FC0
3FC0
7D80
7D80
FD80
FD80
7D80
7D80
3D80
1D80
0D80
0D80
0D80
0D80
0D80
0D80
0D80
0D80
0D80
ENDCHAR
STARTCHAR periodcentered
ENCODING 183
SWIDTH 228 0
DWIDTH 5 0
BBX 3 3 1 6
BITMAP
E0
E0
E0
ENDCHAR
STARTCHAR cedilla
ENCODING 184
SWIDTH 272 0
DWIDTH 6 0
BBX 4 4 1 -4
BITMAP
40
70
30
E0
ENDCHAR
STARTCHAR onesuperior
ENCODING 185
SWIDTH 272 0
DWIDTH 6 0
BBX 5 9 1 7
BITMAP
60
E0
60
60
60
60
60
F8
F8
ENDCHAR
STARTCHAR ordmasculine
ENCODING 186
SWIDTH 298 0
DWIDTH 7 0
BBX 6 9 0 7
BITMAP
38
7C
CC
CC
C4
CC
EC
7C
38
ENDCHAR
STARTCHAR guillemotright
ENCODING 187
SWIDTH 456 0
DWIDTH 10 0
BBX 9 9 1 3
BITMAP
CC00
EE00
6600
7700
3B80
7700
6600
EE00
CC00
ENDCHAR
STARTCHAR onequarter
ENCODING 188
SWIDTH 684 0
DWIDTH 15 0
BBX 14 15 1 0
BITMAP
6030
E020
6060
6040
6080
6180
6130
FB60
FA68
0658
0CD8
08FC
18FC
1018
3018
ENDCHAR
STARTCHAR onehalf
ENCODING 189
SWIDTH 684 0
DWIDTH 15 0
BBX 14 15 1 0
BITMAP
6030
E020
6040
60C0
6080
6190
6178
FB4C
FAC8
0418
0C30
0830
1860
107C
30FC
ENDCHAR
STARTCHAR threequarters
ENCODING 190
SWIDTH 684 0
DWIDTH 15 0
BBX 13 15 1 0
BITMAP
7030
F820
D840
30C0
1880
99B0
D920
FB60
7268
04D8
0CD8
08F8
18F8
1018
3018
ENDCHAR
STARTCHAR questiondown
ENCODING 191
SWIDTH 500 0
DWIDTH 11 0
BBX 9 16 1 -4
BITMAP
1C00
1C00
1C00
0000
1C00
1C00
3800
3800
7000
F000
E000
E380
E380
F780
7F00
3E00
ENDCHAR
STARTCHAR Agrave
ENCODING 192
SWIDTH 591 0
DWIDTH 13 0
BBX 13 20 0 0
BITMAP
1C00
0600
0700
0000
0000
0700
0F80
0D80
0D80
1DC0
1DC0
19C0
38E0
38E0
30E0
7FF0
7FF0
6070
E038
E038
ENDCHAR
STARTCHAR Aacute
ENCODING 193
SWIDTH 591 0
DWIDTH 13 0
BBX 13 20 0 0
BITMAP
01C0
0300
0700
0000
0000
0700
0F80
0D80
0D80
1DC0
1DC0
19C0
38E0
38E0
30E0
7FF0
7FF0
6070
E038
E038
ENDCHAR
STARTCHAR Acircumflex
ENCODING 194
SWIDTH 591 0
DWIDTH 13 0
BBX 13 20 0 0
BITMAP
0700
0580
0D80
0000
0000
0700
0F80
0D80
0D80
1DC0
1DC0
19C0
38E0
38E0
30E0
7FF0
7FF0
6070
E038
E038
ENDCHAR
STARTCHAR Atilde
ENCODING 195
SWIDTH 591 0
DWIDTH 13 0
BBX 13 20 0 0
BITMAP
0C40
1FC0
1B80
0000
0000
0700
0F80
0D80
0D80
1DC0
1DC0
18C0
38E0
38E0
3FE0
7FF0
7FF0
6070
E038
E038
ENDCHAR
STARTCHAR Adieresis
ENCODING 196
SWIDTH 591 0
DWIDTH 13 0
BBX 13 19 0 0
BITMAP
1DC0
1DC0
0000
0000
0700
0F80
0D80
0D80
1DC0
1DC0
19C0
38E0
38E0
30E0
7FF0
7FF0
6070
E038
E038
ENDCHAR
STARTCHAR Aring
ENCODING 197
SWIDTH 591 0
DWIDTH 13 0
BBX 13 20 0 0
BITMAP
0700
0D80
0D80
0700
0000
0700
0F80
0D80
0D80
1DC0
1DC0
19C0
38E0
38E0
30E0
7FF0
7FF0
6070
E038
E038
ENDCHAR
STARTCHAR AE
ENCODING 198
SWIDTH 819 0
DWIDTH 18 0
BBX 17 15 0 0
BITMAP
07FF80
07FF80
07C000
0FC000
0DC000
1CC000
1CFF00
18FF00
38E000
38E000
3FF000
7FF000
607000
E07F80
E03F80
ENDCHAR
STARTCHAR Ccedilla
ENCODING 199
SWIDTH 591 0
DWIDTH 13 0
BBX 11 19 1 -4
BITMAP
1F00
3FC0
79E0
E0E0
E0E0
E0E0
E000
E000
E000
E000
E0E0
E0E0
71E0
7FC0
3F80
0400
0700
0300
0E00
ENDCHAR
STARTCHAR Egrave
ENCODING 200
SWIDTH 546 0
DWIDTH 12 0
BBX 10 20 1 0
BITMAP
3800
1C00
0E00
0000
0000
FFC0
FFC0
E000
E000
E000
E000
FF80
FF80
E000
E000
E000
E000
E000
FFC0
FFC0
ENDCHAR
STARTCHAR Eacute
ENCODING 201
SWIDTH 546 0
DWIDTH 12 0
BBX 10 20 1 0
BITMAP
0700
0E00
0C00
0000
0000
FFC0
FFC0
E000
E000
E000
E000
FF80
FF80
E000
E000
E000
E000
E000
FFC0
FFC0
ENDCHAR
STARTCHAR Ecircumflex
ENCODING 202
SWIDTH 546 0
DWIDTH 12 0
BBX 10 20 1 0
BITMAP
0C00
1E00
1E00
3300
0000
FFC0
FFC0
FFC0
E000
E000
E000
FF80
FF80
E000
E000
E000
E000
E000
FFC0
FFC0
ENDCHAR
STARTCHAR Edieresis
ENCODING 203
SWIDTH 546 0
DWIDTH 12 0
BBX 10 19 1 0
BITMAP
3300
3300
0000
0000
FFC0
FFC0
E000
E000
E000
E000
FF80
FF80
E000
E000
E000
E000
E000
FFC0
FFC0
ENDCHAR
STARTCHAR Igrave
ENCODING 204
SWIDTH 228 0
DWIDTH 5 0
BBX 5 20 -1 0
BITMAP
E0
30
38
00
00
38
38
38
38
38
38
38
38
38
38
38
38
38
38
38
ENDCHAR
STARTCHAR Iacute
ENCODING 205
SWIDTH 228 0
DWIDTH 5 0
BBX 5 20 1 0
BITMAP
38
60
E0
00
00
E0
E0
E0
E0
E0
E0
E0
E0
E0
E0
E0
E0
E0
E0
E0
ENDCHAR
STARTCHAR Icircumflex
ENCODING 206
SWIDTH 228 0
DWIDTH 5 0
BBX 5 20 0 0
BITMAP
70
F8
D8
00
00
70
70
70
70
70
70
70
70
70
70
70
70
70
70
70
ENDCHAR
STARTCHAR Idieresis
ENCODING 207
SWIDTH 228 0
DWIDTH 5 0
BBX 7 19 -1 0
BITMAP
EE
EE
00
00
38
38
38
38
38
38
38
38
38
38
38
38
38
38
38
ENDCHAR
STARTCHAR Eth
ENCODING 208
SWIDTH 591 0
DWIDTH 13 0
BBX 12 15 0 0
BITMAP
7F80
7FC0
71E0
7070
7070
7070
FE70
FE70
7070
7070
7070
70F0
71E0
7FC0
7F80
ENDCHAR
STARTCHAR Ntilde
ENCODING 209
SWIDTH 591 0
DWIDTH 13 0
BBX 11 20 1 0
BITMAP
1880
3F80
3700
0000
0000
E0E0
F0E0
F0E0
F8E0
F8E0
FCE0
FCE0
EEE0
EFE0
E7E0
E3E0
E3E0
E1E0
E1E0
E0E0
ENDCHAR
STARTCHAR Ograve
ENCODING 210
SWIDTH 638 0
DWIDTH 14 0
BBX 12 20 1 0
BITMAP
1C00
0E00
0700
0000
0000
1F80
3FC0
79E0
E070
E070
E070
E070
E070
E070
E070
E070
E070
79E0
3FC0
1F80
ENDCHAR
STARTCHAR Oacute
ENCODING 211
SWIDTH 638 0
DWIDTH 14 0
BBX 12 20 1 0
BITMAP
0380
0700
0600
0000
0000
1F80
3FC0
79E0
E070
E070
E070
E070
E070
E070
E070
E070
E070
79E0
3FC0
1F80
ENDCHAR
STARTCHAR Ocircumflex
ENCODING 212
SWIDTH 638 0
DWIDTH 14 0
BBX 12 20 1 0
BITMAP
0600
0F00
1980
0000
0000
1F80
3FC0
79E0
F0F0
E070
E070
E070
E070
E070
E070
E070
E070
79E0
3FC0
1F80
ENDCHAR
STARTCHAR Otilde
ENCODING 213
SWIDTH 638 0
DWIDTH 14 0
BBX 12 20 1 0
BITMAP
1CC0
1F80
3380
0000
0000
1F80
3FC0
79E0
E070
E070
E070
E070
E070
E070
E070
E070
E070
79E0
3FC0
1F80
ENDCHAR
STARTCHAR Odieresis
ENCODING 214
SWIDTH 638 0
DWIDTH 14 0
BBX 12 20 1 0
BITMAP
1980
1980
0000
0000
0000
1F80
3FC0
79E0
E070
E070
E070
E070
E070
E070
E070
E070
E070
79E0
3FC0
1F80
ENDCHAR
STARTCHAR multiply
ENCODING 215
SWIDTH 479 0
DWIDTH 11 0
BBX 9 10 1 1
BITMAP
4100
C180
E380
7700
3E00
1C00
3E00
7700
E380
4100
ENDCHAR
STARTCHAR Oslash
ENCODING 216
SWIDTH 638 0
DWIDTH 14 0
BBX 12 16 1 0
BITMAP
0030
1FA0
3FE0
79E0
E0F0
E1F0
E370
E370
E670
EC70
EC70
F870
F070
79E0
7FC0
5F80
ENDCHAR
STARTCHAR Ugrave
ENCODING 217
SWIDTH 591 0
DWIDTH 13 0
BBX 11 20 1 0
BITMAP
3800
0C00
0E00
0000
0000
E0E0
E0E0
E0E0
E0E0
E0E0
E0E0
E0E0
E0E0
E0E0
E0E0
E0E0
E0E0
71C0
7FC0
1F00
ENDCHAR
STARTCHAR Uacute
ENCODING 218
SWIDTH 591 0
DWIDTH 13 0
BBX 11 20 1 0
BITMAP
0380
0600
0E00
0000
0000
E0E0
E0E0
E0E0
E0E0
E0E0
E0E0
E0E0
E0E0
E0E0
E0E0
E0E0
E0E0
71C0
7FC0
1F00
ENDCHAR
STARTCHAR Ucircumflex
ENCODING 219
SWIDTH 591 0
DWIDTH 13 0
BBX 11 20 1 0
BITMAP
0E00
0F00
1B00
0000
0000
E0E0
E0E0
E0E0
E0E0
E0E0
E0E0
E0E0
E0E0
E0E0
E0E0
E0E0
E0E0
71C0
7FC0
1F00
ENDCHAR
STARTCHAR Udieresis
ENCODING 220
SWIDTH 591 0
DWIDTH 13 0
BBX 11 20 1 0
BITMAP
3B80
3B80
0000
0000
0000
E0E0
E0E0
E0E0
E0E0
E0E0
E0E0
E0E0
E0E0
E0E0
E0E0
E0E0
E0E0
71C0
7FC0
1F00
ENDCHAR
STARTCHAR Yacute
ENCODING 221
SWIDTH 546 0
DWIDTH 12 0
BBX 12 20 0 0
BITMAP
0380
0700
0600
0800
0000
E070
70E0
70E0
39C0
39C0
1F80
1F80
0F00
0F00
0600
0600
0600
0600
0600
0600
ENDCHAR
STARTCHAR Thorn
ENCODING 222
SWIDTH 546 0
DWIDTH 12 0
BBX 10 15 1 0
BITMAP
E000
E000
E000
FF80
FFC0
E1C0
E1C0
E0C0
E1C0
E1C0
FF80
FF00
E000
E000
E000
ENDCHAR
STARTCHAR germandbls
ENCODING 223
SWIDTH 500 0
DWIDTH 11 0
BBX 9 16 1 0
BITMAP
3E00
7F00
E780
E380
E380
E380
E700
EE00
EF00
E380
E180
E180
E380
E380
EF00
EE00
ENDCHAR
STARTCHAR agrave
ENCODING 224
SWIDTH 456 0
DWIDTH 10 0
BBX 10 16 0 0
BITMAP
3800
1800
0C00
0000
1E00
7F00
7380
6380
0380
3F80
7F80
F380
E380
E780
7FC0
39C0
ENDCHAR
STARTCHAR aacute
ENCODING 225
SWIDTH 456 0
DWIDTH 10 0
BBX 10 16 0 0
BITMAP
0700
0E00
1C00
0000
1E00
7F00
7380
6380
0380
3F80
7F80
F380
E380
E780
7FC0
39C0
ENDCHAR
STARTCHAR acircumflex
ENCODING 226
SWIDTH 456 0
DWIDTH 10 0
BBX 10 16 0 0
BITMAP
1C00
1E00
3700
0000
3E00
7F00
7380
6380
0380
3F80
7F80
F380
E380
E780
7FC0
39C0
ENDCHAR
STARTCHAR atilde
ENCODING 227
SWIDTH 456 0
DWIDTH 10 0
BBX 10 16 0 0
BITMAP
3900
7F00
6F00
0000
1E00
7F00
7380
6380
0380
3F80
7F80
F380
E380
E780
7FC0
39C0
ENDCHAR
STARTCHAR adieresis
ENCODING 228
SWIDTH 456 0
DWIDTH 10 0
BBX 10 16 0 0
BITMAP
3300
3300
0000
0000
1E00
7F00
7380
6380
0380
3F80
7F80
F380
E380
E780
7FC0
39C0
ENDCHAR
STARTCHAR aring
ENCODING 229
SWIDTH 456 0
DWIDTH 10 0
BBX 10 16 0 0
BITMAP
1C00
1200
1C00
0000
1E00
7F00
7380
6380
0380
3F80
7F80
F380
E380
E780
7FC0
39C0
ENDCHAR
STARTCHAR ae
ENCODING 230
SWIDTH 729 0
DWIDTH 16 0
BBX 14 12 1 0
BITMAP
3CF0
7FF8
E79C
E39C
031C
3FFC
FFFC
E300
E70C
E79C
FFF8
78F0
ENDCHAR
STARTCHAR ccedilla
ENCODING 231
SWIDTH 456 0
DWIDTH 10 0
BBX 8 16 1 -4
BITMAP
3C
7E
E7
E7
E3
E0
E0
E0
E3
E7
7F
7E
18
1C
04
3C
ENDCHAR
STARTCHAR egrave
ENCODING 232
SWIDTH 456 0
DWIDTH 10 0
BBX 8 16 1 0
BITMAP
70
38
1C
00
3C
7E
E7
E7
C3
FF
FF
C0
E3
E7
7F
3C
ENDCHAR
STARTCHAR eacute
ENCODING 233
SWIDTH 456 0
DWIDTH 10 0
BBX 8 16 1 0
BITMAP
0E
1C
38
00
3C
7E
E7
E7
C3
FF
FF
C0
E3
E7
7F
3C
ENDCHAR
STARTCHAR ecircumflex
ENCODING 234
SWIDTH 456 0
DWIDTH 10 0
BBX 8 16 1 0
BITMAP
18
3C
66
00
3C
7E
E7
E7
C3
FF
FF
C0
E3
E7
7F
3C
ENDCHAR
STARTCHAR edieresis
ENCODING 235
SWIDTH 456 0
DWIDTH 10 0
BBX 8 16 1 0
BITMAP
66
66
00
00
3C
7E
E7
E7
C3
FF
FF
C0
E3
E7
7F
3C
ENDCHAR
STARTCHAR igrave
ENCODING 236
SWIDTH 228 0
DWIDTH 5 0
BBX 5 16 -1 0
BITMAP
E0
30
38
00
38
38
38
38
38
38
38
38
38
38
38
38
ENDCHAR
STARTCHAR iacute
ENCODING 237
SWIDTH 228 0
DWIDTH 5 0
BBX 5 16 1 0
BITMAP
38
60
E0
00
E0
E0
E0
E0
E0
E0
E0
E0
E0
E0
E0
E0
ENDCHAR
STARTCHAR icircumflex
ENCODING 238
SWIDTH 228 0
DWIDTH 5 0
BBX 5 16 0 0
BITMAP
70
F8
D8
00
70
70
70
70
70
70
70
70
70
70
70
70
ENDCHAR
STARTCHAR idieresis
ENCODING 239
SWIDTH 228 0
DWIDTH 5 0
BBX 7 16 -1 0
BITMAP
EE
EE
00
00
38
38
38
38
38
38
38
38
38
38
38
38
ENDCHAR
STARTCHAR eth
ENCODING 240
SWIDTH 500 0
DWIDTH 11 0
BBX 9 16 1 0
BITMAP
3800
7F80
7E00
0700
3F00
7F00
F780
E380
E380
E380
E380
E380
E380
F780
7F00
3E00
ENDCHAR
STARTCHAR ntilde
ENCODING 241
SWIDTH 500 0
DWIDTH 11 0
BBX 9 16 1 0
BITMAP
3100
7F00
6E00
0000
CF00
FF00
F380
E380
E380
E380
E380
E380
E380
E380
E380
E380
ENDCHAR
STARTCHAR ograve
ENCODING 242
SWIDTH 500 0
DWIDTH 11 0
BBX 9 16 1 0
BITMAP
7000
1800
1C00
0000
3E00
7F00
F780
E380
E380
E380
E380
E380
E380
F780
7F00
3E00
ENDCHAR
STARTCHAR oacute
ENCODING 243
SWIDTH 500 0
DWIDTH 11 0
BBX 9 16 1 0
BITMAP
0700
0C00
1C00
0000
3E00
7F00
F780
E380
E380
E380
E380
E380
E380
F780
7F00
3E00
ENDCHAR
STARTCHAR ocircumflex
ENCODING 244
SWIDTH 500 0
DWIDTH 11 0
BBX 9 16 1 0
BITMAP
1C00
3600
3600
0000
3E00
7F00
F780
E380
E380
E380
E380
E380
E380
F780
7F00
3E00
ENDCHAR
STARTCHAR otilde
ENCODING 245
SWIDTH 500 0
DWIDTH 11 0
BBX 9 16 1 0
BITMAP
3100
7F00
6E00
0000
3E00
7F00
F780
E380
E380
E380
E380
E380
E380
F780
7F00
3E00
ENDCHAR
STARTCHAR odieresis
ENCODING 246
SWIDTH 500 0
DWIDTH 11 0
BBX 9 16 1 0
BITMAP
7700
7700
0000
0000
3E00
7F00
F780
E380
E380
E380
E380
E380
E380
F780
7F00
3E00
ENDCHAR
STARTCHAR divide
ENCODING 247
SWIDTH 548 0
DWIDTH 12 0
BBX 10 9 1 1
BITMAP
0C00
0C00
0000
FFC0
FFC0
0000
0000
0C00
0C00
ENDCHAR
STARTCHAR oslash
ENCODING 248
SWIDTH 500 0
DWIDTH 11 0
BBX 9 13 1 0
BITMAP
0180
3F00
7F00
F780
E780
EF80
EF80
FB80
FB80
F380
F780
7F00
7E00
ENDCHAR
STARTCHAR ugrave
ENCODING 249
SWIDTH 500 0
DWIDTH 11 0
BBX 9 16 1 0
BITMAP
7000
1800
1C00
0000
E380
E380
E380
E380
E380
E380
E380
E380
E380
F780
7F80
7980
ENDCHAR
STARTCHAR uacute
ENCODING 250
SWIDTH 500 0
DWIDTH 11 0
BBX 9 16 1 0
BITMAP
0700
0C00
1C00
0000
E380
E380
E380
E380
E380
E380
E380
E380
E380
F780
7F80
7980
ENDCHAR
STARTCHAR ucircumflex
ENCODING 251
SWIDTH 500 0
DWIDTH 11 0
BBX 9 16 1 0
BITMAP
1C00
1E00
3600
0000
E380
E380
E380
E380
E380
E380
E380
E380
E380
F780
7F80
7980
ENDCHAR
STARTCHAR udieresis
ENCODING 252
SWIDTH 500 0
DWIDTH 11 0
BBX 9 16 1 0
BITMAP
7700
7700
0000
0000
E380
E380
E380
E380
E380
E380
E380
E380
E380
F780
7F80
7980
ENDCHAR
STARTCHAR yacute
ENCODING 253
SWIDTH 456 0
DWIDTH 10 0
BBX 10 20 0 -4
BITMAP
0700
0E00
1C00
0000
E1C0
61C0
7180
7380
3380
3B00
3B00
1B00
1F00
1E00
1E00
0E00
0C00
1C00
7800
7000
ENDCHAR
STARTCHAR thorn
ENCODING 254
SWIDTH 500 0
DWIDTH 11 0
BBX 9 20 1 -4
BITMAP
E000
E000
E000
E000
EE00
FF00
F780
E380
E380
E380
E380
E380
E380
F780
FF00
EE00
E000
E000
E000
E000
ENDCHAR
STARTCHAR ydieresis
ENCODING 255
SWIDTH 456 0
DWIDTH 10 0
BBX 10 20 0 -4
BITMAP
3300
3300
0000
0000
E1C0
61C0
7180
7380
3380
3B00
3B00
1B00
1F00
1E00
1E00
0E00
0C00
1C00
7800
7000
ENDCHAR
STARTCHAR .notdef
ENCODING -1
SWIDTH 228 0
DWIDTH 5 0
BBX 11 16 0 0
BITMAP
FFE0
FFE0
C060
A0A0
B1A0
9120
8A20
8E20
8420
8A20
9B20
9120
A0A0
E0E0
C060
FFE0
ENDCHAR
STARTCHAR NULL
ENCODING -1
SWIDTH 0 0
DWIDTH 0 0
BBX 1 1 0 0
BITMAP
00
ENDCHAR
STARTCHAR Euro
ENCODING -1
SWIDTH 456 0
DWIDTH 10 0
BBX 10 15 0 0
BITMAP
07C0
1FC0
3C00
3000
FF00
FF00
7000
7000
FF00
FF00
3000
3800
1E00
0FC0
07C0
ENDCHAR
STARTCHAR quotesinglbase
ENCODING -1
SWIDTH 228 0
DWIDTH 5 0
BBX 3 7 1 -4
BITMAP
E0
E0
E0
60
40
C0
C0
ENDCHAR
STARTCHAR florin
ENCODING -1
SWIDTH 456 0
DWIDTH 10 0
BBX 10 20 0 -4
BITMAP
03C0
07C0
0700
0600
0600
1F80
1F80
0E00
0E00
0C00
0C00
0C00
1C00
1C00
1C00
1C00
1C00
1800
7800
F000
ENDCHAR
STARTCHAR quotedblbase
ENCODING -1
SWIDTH 410 0
DWIDTH 9 0
BBX 7 7 1 -4
BITMAP
EE
EE
EE
66
44
CC
CC
ENDCHAR
STARTCHAR ellipsis
ENCODING -1
SWIDTH 819 0
DWIDTH 18 0
BBX 15 3 2 0
BITMAP
E79E
E79E
E79E
ENDCHAR
STARTCHAR dagger
ENCODING -1
SWIDTH 456 0
DWIDTH 10 0
BBX 8 19 1 -4
BITMAP
18
18
18
18
FF
FF
18
18
18
18
18
18
18
18
18
18
18
18
18
ENDCHAR
STARTCHAR daggerdbl
ENCODING -1
SWIDTH 456 0
DWIDTH 10 0
BBX 8 19 1 -4
BITMAP
18
18
18
18
FF
FF
18
18
18
18
18
18
18
FF
FF
18
18
18
18
ENDCHAR
STARTCHAR circumflex
ENCODING -1
SWIDTH 272 0
DWIDTH 6 0
BBX 6 3 0 13
BITMAP
30
78
CC
ENDCHAR
STARTCHAR perthousand
ENCODING -1
SWIDTH 819 0
DWIDTH 18 0
BBX 18 15 0 0
BITMAP
708000
F98000
D90000
D90000
DB0000
FA0000
7A0000
06E380
05F7C0
05B6C0
0DB6C0
0DB6C0
09B6C0
19F7C0
18E380
ENDCHAR
STARTCHAR Scaron
ENCODING -1
SWIDTH 546 0
DWIDTH 12 0
BBX 10 20 1 0
BITMAP
3300
1E00
0C00
0000
0000
3F00
7F80
F3C0
E1C0
E000
F000
7E00
3F80
0FC0
01C0
E1C0
E1C0
F3C0
7F80
3F00
ENDCHAR
STARTCHAR guilsinglleft
ENCODING -1
SWIDTH 272 0
DWIDTH 6 0
BBX 5 9 0 3
BITMAP
18
38
30
70
E0
70
30
38
18
ENDCHAR
STARTCHAR OE
ENCODING -1
SWIDTH 819 0
DWIDTH 18 0
BBX 16 15 1 0
BITMAP
3EFF
7FFF
73E0
E1E0
E0E0
E0E0
E0FE
E0FE
E0E0
E0E0
E0E0
E1E0
73E0
7FFF
3EFF
ENDCHAR
STARTCHAR Zcaron
ENCODING -1
SWIDTH 500 0
DWIDTH 11 0
BBX 11 20 0 0
BITMAP
1B00
0B00
0E00
0000
0000
7FC0
7FC0
03C0
0380
0780
0700
0E00
0E00
1C00
1C00
3800
3800
7000
7FE0
FFE0
ENDCHAR
STARTCHAR quoteleft
ENCODING -1
SWIDTH 228 0
DWIDTH 5 0
BBX 3 6 1 9
BITMAP
60
40
C0
E0
E0
E0
ENDCHAR
STARTCHAR quoteright
ENCODING -1
SWIDTH 228 0
DWIDTH 5 0
BBX 3 6 1 9
BITMAP
E0
E0
E0
60
40
C0
ENDCHAR
STARTCHAR quotedblleft
ENCODING -1
SWIDTH 410 0
DWIDTH 9 0
BBX 7 6 1 9
BITMAP
66
44
CC
EE
EE
EE
ENDCHAR
STARTCHAR quotedblright
ENCODING -1
SWIDTH 410 0
DWIDTH 9 0
BBX 7 6 1 9
BITMAP
EE
EE
EE
66
44
CC
ENDCHAR
STARTCHAR bullet
ENCODING -1
SWIDTH 287 0
DWIDTH 6 0
BBX 5 5 1 5
BITMAP
70
F8
F8
F8
70
ENDCHAR
STARTCHAR endash
ENCODING -1
SWIDTH 456 0
DWIDTH 10 0
BBX 10 2 0 5
BITMAP
FFC0
FFC0
ENDCHAR
STARTCHAR emdash
ENCODING -1
SWIDTH 819 0
DWIDTH 18 0
BBX 18 2 0 5
BITMAP
FFFFC0
FFFFC0
ENDCHAR
STARTCHAR tilde
ENCODING -1
SWIDTH 272 0
DWIDTH 6 0
BBX 8 3 -1 13
BITMAP
73
7E
CE
ENDCHAR
STARTCHAR trademark
ENCODING -1
SWIDTH 819 0
DWIDTH 18 0
BBX 14 9 2 6
BITMAP
FF8C
339C
33DC
33DC
335C
335C
336C
336C
336C
ENDCHAR
STARTCHAR scaron
ENCODING -1
SWIDTH 456 0
DWIDTH 10 0
BBX 8 16 1 0
BITMAP
66
3C
18
00
3C
FE
E7
E7
F0
7E
3F
07
C3
E7
FF
3E
ENDCHAR
STARTCHAR guilsinglright
ENCODING -1
SWIDTH 272 0
DWIDTH 6 0
BBX 5 9 1 3
BITMAP
C0
E0
60
70
38
70
60
E0
C0
ENDCHAR
STARTCHAR oe
ENCODING -1
SWIDTH 773 0
DWIDTH 17 0
BBX 15 12 1 0
BITMAP
3E78
7FFC
F7CC
E38E
E38E
E3FE
E3FE
E380
E38E
F7CE
7FFC
3E78
ENDCHAR
STARTCHAR zcaron
ENCODING -1
SWIDTH 410 0
DWIDTH 9 0
BBX 9 16 0 0
BITMAP
3600
1600
1C00
0000
7F00
7F00
0700
0E00
0E00
1C00
1C00
3800
3800
7000
7F80
FF80
ENDCHAR
STARTCHAR Ydieresis
ENCODING -1
SWIDTH 546 0
DWIDTH 12 0
BBX 12 19 0 0
BITMAP
1980
1980
0000
0000
E070
70E0
70E0
39C0
39C0
1F80
1F80
0F00
0F00
0600
0600
0600
0600
0600
0600
ENDCHAR
STARTCHAR Abreve
ENCODING -1
SWIDTH 591 0
DWIDTH 13 0
BBX 13 20 0 0
BITMAP
0880
0F80
0700
0000
0000
0700
0F80
0D80
0D80
1DC0
1DC0
18C0
38E0
38E0
3FE0
7FF0
7FF0
6070
E038
E038
ENDCHAR
STARTCHAR Amacron
ENCODING -1
SWIDTH 591 0
DWIDTH 13 0
BBX 13 19 0 0
BITMAP
0F80
0F80
0000
0000
0700
0F80
0D80
0D80
1DC0
1DC0
19C0
38E0
38E0
30E0
7FF0
7FF0
6070
E038
E038
ENDCHAR
STARTCHAR Aogonek
ENCODING -1
SWIDTH 591 0
DWIDTH 13 0
BBX 14 19 0 -4
BITMAP
0700
0F80
0D80
0D80
1DC0
1DC0
19C0
38E0
38E0
30E0
7FF0
7FF0
6070
E038
E038
0018
0030
0038
001C
ENDCHAR
STARTCHAR Aringacute
ENCODING -1
SWIDTH 610 0
DWIDTH 13 0
BBX 13 21 0 0
BITMAP
01C0
0300
0000
0700
0D80
0D80
0700
0F80
0D80
0D80
1DC0
1DC0
19C0
38E0
38E0
30E0
7FF0
7FF0
6070
E038
E038
ENDCHAR
STARTCHAR Cacute
ENCODING -1
SWIDTH 591 0
DWIDTH 13 0
BBX 11 20 1 0
BITMAP
0380
0700
0E00
0000
0000
1F00
3FC0
79E0
E0E0
E0E0
E0E0
E000
E000
E000
E060
E0E0
E0E0
79E0
3FC0
1F00
ENDCHAR
STARTCHAR Ccaron
ENCODING -1
SWIDTH 591 0
DWIDTH 13 0
BBX 11 20 1 0
BITMAP
1B80
0F00
0E00
0000
0000
1F00
3FC0
79E0
E0E0
E0E0
E0E0
E000
E000
E000
E060
E0E0
E0E0
79E0
3FC0
1F00
ENDCHAR
STARTCHAR Ccircumflex
ENCODING -1
SWIDTH 591 0
DWIDTH 13 0
BBX 11 20 1 0
BITMAP
0E00
0F00
1B80
0000
0000
1F00
3FC0
7BE0
F0E0
E0E0
E0E0
E000
E000
E000
E060
E0E0
E0E0
79E0
3FC0
1F00
ENDCHAR
STARTCHAR Cdotaccent
ENCODING -1
SWIDTH 591 0
DWIDTH 13 0
BBX 11 20 1 0
BITMAP
0600
0600
0000
0000
0000
1F00
3FC0
79E0
E0E0
E0E0
E0E0
E000
E000
E000
E060
E0E0
E0E0
79E0
3FC0
1F00
ENDCHAR
STARTCHAR Dcaron
ENCODING -1
SWIDTH 591 0
DWIDTH 13 0
BBX 11 20 1 0
BITMAP
3700
1E00
1C00
0000
0000
FF00
FF80
E3C0
E0E0
E0E0
E0E0
E0E0
E0E0
E0E0
E0E0
E0E0
E1E0
E3C0
FF80
FF00
ENDCHAR
STARTCHAR Dcroat
ENCODING -1
SWIDTH 591 0
DWIDTH 13 0
BBX 12 15 0 0
BITMAP
7F80
7FC0
71E0
7070
7070
7070
FE70
FE70
7070
7070
7070
70F0
71E0
7FC0
7F80
ENDCHAR
STARTCHAR Ebreve
ENCODING -1
SWIDTH 546 0
DWIDTH 12 0
BBX 10 20 1 0
BITMAP
3300
3F00
1E00
0000
0000
FFC0
FFC0
E000
E000
E000
E000
FF80
FF80
E000
E000
E000
E000
E000
FFC0
FFC0
ENDCHAR
STARTCHAR Ecaron
ENCODING -1
SWIDTH 546 0
DWIDTH 12 0
BBX 10 20 1 0
BITMAP
3300
1E00
1E00
0C00
0000
FFC0
FFC0
FFC0
E000
E000
E000
FF80
FF80
E000
E000
E000
E000
E000
FFC0
FFC0
ENDCHAR
STARTCHAR Edotaccent
ENCODING -1
SWIDTH 546 0
DWIDTH 12 0
BBX 10 19 1 0
BITMAP
0C00
0C00
0000
0000
FFC0
FFC0
E000
E000
E000
E000
FF80
FF80
E000
E000
E000
E000
E000
FFC0
FFC0
ENDCHAR
STARTCHAR Emacron
ENCODING -1
SWIDTH 546 0
DWIDTH 12 0
BBX 10 19 1 0
BITMAP
3F00
3F00
0000
0000
FFC0
FFC0
E000
E000
E000
E000
FF80
FF80
E000
E000
E000
E000
E000
FFC0
FFC0
ENDCHAR
STARTCHAR Eng
ENCODING -1
SWIDTH 592 0
DWIDTH 13 0
BBX 11 19 1 -4
BITMAP
E0E0
F0E0
F0E0
F8E0
F8E0
FCE0
FCE0
EEE0
EFE0
E7E0
E3E0
E3E0
E1E0
E1E0
E0E0
00E0
00E0
03C0
03C0
ENDCHAR
STARTCHAR Eogonek
ENCODING -1
SWIDTH 546 0
DWIDTH 12 0
BBX 11 19 1 -4
BITMAP
FFC0
FFC0
E000
E000
E000
E000
FF80
FF80
E000
E000
E000
E000
E000
FFC0
FFC0
00C0
0180
01C0
00E0
ENDCHAR
STARTCHAR Gbreve
ENCODING -1
SWIDTH 638 0
DWIDTH 14 0
BBX 12 20 1 0
BITMAP
1980
1F80
0F00
0000
0000
1F80
3FC0
79E0
E070
E070
E000
E000
E3F0
E3F0
E070
E070
F0F0
79F0
3FB0
1F30
ENDCHAR
STARTCHAR Gcircumflex
ENCODING -1
SWIDTH 638 0
DWIDTH 14 0
BBX 12 20 1 0
BITMAP
0600
0F00
1980
0000
0000
1F80
3FC0
79E0
F0F0
E070
E000
E000
E3F0
E3F0
E070
E070
E0F0
79F0
3FB0
1F30
ENDCHAR
STARTCHAR Gcommaaccent
ENCODING -1
SWIDTH 638 0
DWIDTH 14 0
BBX 12 21 1 -6
BITMAP
1F80
3FC0
79E0
E070
E070
E000
E000
E3F0
E3F0
E070
E070
E0F0
79F0
3FB0
1F30
0000
0000
0E00
0E00
0600
0400
ENDCHAR
STARTCHAR Gdotaccent
ENCODING -1
SWIDTH 638 0
DWIDTH 14 0
BBX 12 20 1 0
BITMAP
0600
0600
0000
0000
0000
1F80
3FC0
79E0
E070
E070
E000
E000
E3F0
E3F0
E070
E070
E0F0
79F0
3FB0
1F30
ENDCHAR
STARTCHAR Hbar
ENCODING -1
SWIDTH 591 0
DWIDTH 13 0
BBX 13 15 0 0
BITMAP
7070
7070
FFF8
FFF8
7070
7070
7FF0
7FF0
7070
7070
7070
7070
7070
7070
7070
ENDCHAR
STARTCHAR Hcircumflex
ENCODING -1
SWIDTH 591 0
DWIDTH 13 0
BBX 11 20 1 0
BITMAP
0E00
0F00
1B00
0000
0000
E0E0
E0E0
E0E0
E0E0
E0E0
E0E0
FFE0
FFE0
E0E0
E0E0
E0E0
E0E0
E0E0
E0E0
E0E0
ENDCHAR
STARTCHAR IJ
ENCODING -1
SWIDTH 684 0
DWIDTH 15 0
BBX 13 15 1 0
BITMAP
E038
E038
E038
E038
E038
E038
E038
E038
E038
E038
EE38
EE38
EF78
E7F0
E3E0
ENDCHAR
STARTCHAR Ibreve
ENCODING -1
SWIDTH 228 0
DWIDTH 5 0
BBX 5 20 0 0
BITMAP
88
F8
70
00
00
70
70
70
70
70
70
70
70
70
70
70
70
70
70
70
ENDCHAR
STARTCHAR Idotaccent
ENCODING -1
SWIDTH 228 0
DWIDTH 5 0
BBX 3 19 1 0
BITMAP
E0
E0
00
00
E0
E0
E0
E0
E0
E0
E0
E0
E0
E0
E0
E0
E0
E0
E0
ENDCHAR
STARTCHAR Imacron
ENCODING -1
SWIDTH 228 0
DWIDTH 5 0
BBX 5 19 0 0
BITMAP
F8
F8
00
00
70
70
70
70
70
70
70
70
70
70
70
70
70
70
70
ENDCHAR
STARTCHAR Iogonek
ENCODING -1
SWIDTH 228 0
DWIDTH 5 0
BBX 4 19 1 -4
BITMAP
E0
E0
E0
E0
E0
E0
E0
E0
E0
E0
E0
E0
E0
E0
E0
60
C0
E0
70
ENDCHAR
STARTCHAR Itilde
ENCODING -1
SWIDTH 228 0
DWIDTH 5 0
BBX 7 20 -1 0
BITMAP
62
FE
DC
00
00
38
38
38
38
38
38
38
38
38
38
38
38
38
38
38
ENDCHAR
STARTCHAR Jcircumflex
ENCODING -1
SWIDTH 456 0
DWIDTH 10 0
BBX 11 20 0 0
BITMAP
0380
03C0
06E0
0000
0000
0380
0380
0380
0380
0380
0380
0380
0380
0380
0380
E380
E380
F780
7F00
3E00
ENDCHAR
STARTCHAR Kcommaaccent
ENCODING -1
SWIDTH 591 0
DWIDTH 13 0
BBX 12 21 1 -6
BITMAP
E0F0
E0E0
E1C0
E380
E780
E700
EF00
FF00
FB80
FB80
F1C0
E1C0
E0E0
E0E0
E070
0000
0000
0E00
0E00
0600
0C00
ENDCHAR
STARTCHAR Lacute
ENCODING -1
SWIDTH 500 0
DWIDTH 11 0
BBX 10 20 1 0
BITMAP
3800
7000
E000
0000
0000
E000
E000
E000
E000
E000
E000
E000
E000
E000
E000
E000
E000
FFC0
FFC0
FFC0
ENDCHAR
STARTCHAR Lcaron
ENCODING -1
SWIDTH 500 0
DWIDTH 11 0
BBX 10 15 1 0
BITMAP
E3C0
E3C0
E3C0
E080
E180
E100
E200
E000
E000
E000
E000
E000
FFC0
FFC0
FFC0
ENDCHAR
STARTCHAR Lcommaaccent
ENCODING -1
SWIDTH 500 0
DWIDTH 11 0
BBX 10 21 1 -6
BITMAP
E000
E000
E000
E000
E000
E000
E000
E000
E000
E000
E000
E000
FFC0
FFC0
FFC0
0000
0000
1C00
1C00
0C00
1800
ENDCHAR
STARTCHAR Ldot
ENCODING -1
SWIDTH 500 0
DWIDTH 11 0
BBX 10 15 1 0
BITMAP
E000
E000
E000
E300
E300
E000
E000
E000
E000
E000
E000
E000
FFC0
FFC0
FFC0
ENDCHAR
STARTCHAR Lslash
ENCODING -1
SWIDTH 500 0
DWIDTH 11 0
BBX 11 15 0 0
BITMAP
7000
7000
7000
7200
7600
7C00
7800
7000
F000
F000
F000
7000
7FE0
7FE0
7FE0
ENDCHAR
STARTCHAR Nacute
ENCODING -1
SWIDTH 591 0
DWIDTH 13 0
BBX 11 20 1 0
BITMAP
0380
0600
0E00
0000
0000
E0E0
F0E0
F0E0
F8E0
F8E0
FCE0
FCE0
EEE0
EFE0
E7E0
E3E0
E3E0
E1E0
E1E0
E0E0
ENDCHAR
STARTCHAR Ncaron
ENCODING -1
SWIDTH 591 0
DWIDTH 13 0
BBX 11 20 1 0
BITMAP
1B00
0B00
0E00
0000
0000
E0E0
F0E0
F0E0
F8E0
F8E0
FCE0
FCE0
EEE0
EFE0
E7E0
E3E0
E3E0
E1E0
E1E0
E0E0
ENDCHAR
STARTCHAR Ncommaaccent
ENCODING -1
SWIDTH 591 0
DWIDTH 13 0
BBX 11 21 1 -6
BITMAP
E0E0
F0E0
F0E0
F8E0
F8E0
FCE0
FCE0
EEE0
EFE0
E7E0
E3E0
E3E0
E1E0
E1E0
E0E0
0000
0000
0E00
0E00
0600
0C00
ENDCHAR
STARTCHAR Obreve
ENCODING -1
SWIDTH 638 0
DWIDTH 14 0
BBX 12 20 1 0
BITMAP
1980
1F80
0F00
0000
0000
1F80
3FC0
79E0
E070
E070
E070
E070
E070
E070
E070
E070
F0F0
79E0
3FC0
1F80
ENDCHAR
STARTCHAR Ohungarumlaut
ENCODING -1
SWIDTH 638 0
DWIDTH 14 0
BBX 12 20 1 0
BITMAP
06C0
0D80
0D80
0000
0000
1F80
3FC0
79E0
E070
E070
E070
E070
E070
E070
E070
E070
E070
79E0
3FC0
1F80
ENDCHAR
STARTCHAR Omacron
ENCODING -1
SWIDTH 638 0
DWIDTH 14 0
BBX 12 19 1 0
BITMAP
1F80
1F80
0000
0000
1F80
3FC0
79E0
E070
E070
E070
E070
E070
E070
E070
E070
E070
79E0
3FC0
1F80
ENDCHAR
STARTCHAR Oslashacute
ENCODING -1
SWIDTH 638 0
DWIDTH 14 0
BBX 12 20 1 0
BITMAP
0380
0700
0600
0000
0030
1FA0
3FE0
79E0
E0F0
E1F0
E370
E370
E670
EC70
EC70
F870
F070
79E0
7FC0
5F80
ENDCHAR
STARTCHAR Racute
ENCODING -1
SWIDTH 591 0
DWIDTH 13 0
BBX 12 20 1 0
BITMAP
0380
0600
0E00
0000
0000
FF80
FFC0
E0E0
E0E0
E0E0
E0E0
FFC0
FF80
E380
E180
E1C0
E1C0
E0E0
E0E0
E0F0
ENDCHAR
STARTCHAR Rcaron
ENCODING -1
SWIDTH 591 0
DWIDTH 13 0
BBX 12 20 1 0
BITMAP
1B00
1B00
0E00
0E00
0000
FF80
FFC0
FFE0
E0E0
E0E0
E0E0
FFC0
FF80
E380
E180
E1C0
E1C0
E0E0
E0E0
E0F0
ENDCHAR
STARTCHAR Rcommaaccent
ENCODING -1
SWIDTH 591 0
DWIDTH 13 0
BBX 12 21 1 -6
BITMAP
FF80
FFC0
E0E0
E0E0
E0E0
E0E0
FFC0
FF80
E380
E180
E1C0
E1C0
E0E0
E0E0
E0F0
0000
0000
0E00
0E00
0600
0C00
ENDCHAR
STARTCHAR Sacute
ENCODING -1
SWIDTH 546 0
DWIDTH 12 0
BBX 10 20 1 0
BITMAP
0700
0E00
0C00
1000
0000
3F00
7F80
F3C0
E1C0
E000
F000
7E00
3F80
0FC0
01C0
E1C0
E1C0
F3C0
7F80
3F00
ENDCHAR
STARTCHAR Scedilla
ENCODING -1
SWIDTH 546 0
DWIDTH 12 0
BBX 10 19 1 -4
BITMAP
3F00
7F80
F3C0
E1C0
E1C0
F000
7E00
3F80
0FC0
03C0
E1C0
E1C0
E1C0
7F80
3F00
0800
0E00
0600
1E00
ENDCHAR
STARTCHAR Scircumflex
ENCODING -1
SWIDTH 546 0
DWIDTH 12 0
BBX 10 20 1 0
BITMAP
0C00
1E00
3300
0000
0000
3F00
7F80
F3C0
E1C0
E1C0
F000
7E00
3F80
0FC0
01C0
E1C0
E1C0
F3C0
7F80
3F00
ENDCHAR
STARTCHAR Tbar
ENCODING -1
SWIDTH 500 0
DWIDTH 11 0
BBX 11 15 0 0
BITMAP
FFE0
FFE0
0E00
0E00
0E00
0E00
3F80
3F80
0E00
0E00
0E00
0E00
0E00
0E00
0E00
ENDCHAR
STARTCHAR Tcaron
ENCODING -1
SWIDTH 500 0
DWIDTH 11 0
BBX 11 20 0 0
BITMAP
1B00
1B00
0E00
0E00
0000
FFE0
FFE0
FFE0
0E00
0E00
0E00
0E00
0E00
0E00
0E00
0E00
0E00
0E00
0E00
0E00
ENDCHAR
STARTCHAR Tcommaaccent
ENCODING -1
SWIDTH 500 0
DWIDTH 11 0
BBX 11 21 0 -6
BITMAP
FFE0
FFE0
0E00
0E00
0E00
0E00
0E00
0E00
0E00
0E00
0E00
0E00
0E00
0E00
0E00
0000
0000
0E00
0E00
0600
0C00
ENDCHAR
STARTCHAR Ubreve
ENCODING -1
SWIDTH 591 0
DWIDTH 13 0
BBX 11 20 1 0
BITMAP
1100
1F00
0E00
0000
0000
E0E0
E0E0
E0E0
E0E0
E0E0
E0E0
E0E0
E0E0
E0E0
E0E0
E0E0
E0E0
71C0
7FC0
1F00
ENDCHAR
STARTCHAR Uhungarumlaut
ENCODING -1
SWIDTH 591 0
DWIDTH 13 0
BBX 11 20 1 0
BITMAP
0FC0
0D80
1B00
0000
0000
E0E0
E0E0
E0E0
E0E0
E0E0
E0E0
E0E0
E0E0
E0E0
E0E0
E0E0
E0E0
71C0
7FC0
1F00
ENDCHAR
STARTCHAR Umacron
ENCODING -1
SWIDTH 591 0
DWIDTH 13 0
BBX 11 19 1 0
BITMAP
1F00
1F00
0000
0000
E0E0
E0E0
E0E0
E0E0
E0E0
E0E0
E0E0
E0E0
E0E0
E0E0
E0E0
E0E0
71C0
7FC0
1F00
ENDCHAR
STARTCHAR Uogonek
ENCODING -1
SWIDTH 591 0
DWIDTH 13 0
BBX 11 19 1 -4
BITMAP
E0E0
E0E0
E0E0
E0E0
E0E0
E0E0
E0E0
E0E0
E0E0
E0E0
E0E0
60E0
71C0
3FC0
1F80
0600
0600
0780
0380
ENDCHAR
STARTCHAR Uring
ENCODING -1
SWIDTH 591 0
DWIDTH 13 0
BBX 11 21 1 0
BITMAP
0E00
0A00
1900
0A00
0E00
0000
E0E0
E0E0
E0E0
E0E0
E0E0
E0E0
E0E0
E0E0
E0E0
E0E0
E0E0
E0E0
71C0
7FC0
1F00
ENDCHAR
STARTCHAR Utilde
ENCODING -1
SWIDTH 591 0
DWIDTH 13 0
BBX 11 20 1 0
BITMAP
1C80
3F80
2700
0000
0000
E0E0
E0E0
E0E0
E0E0
E0E0
E0E0
E0E0
E0E0
E0E0
E0E0
E0E0
E0E0
71C0
7FC0
1F00
ENDCHAR
STARTCHAR Wacute
ENCODING -1
SWIDTH 773 0
DWIDTH 17 0
BBX 17 20 0 0
BITMAP
007000
00C000
01C000
000000
000000
E1C380
E1E380
61E300
636300
736300
736700
737700
337600
3E3600
3E3600
3E3600
1E3C00
1E3C00
1C1C00
1C1C00
ENDCHAR
STARTCHAR Wcircumflex
ENCODING -1
SWIDTH 773 0
DWIDTH 17 0
BBX 17 20 0 0
BITMAP
01C000
01E000
036000
000000
000000
E1C380
E1E380
61E300
636300
736300
736700
737700
337600
3E3600
3E3600
3E3600
1E3C00
1E3C00
1C1C00
1C1C00
ENDCHAR
STARTCHAR Wdieresis
ENCODING -1
SWIDTH 773 0
DWIDTH 17 0
BBX 17 19 0 0
BITMAP
077000
077000
000000
000000
E1C380
E1E380
61E300
636300
736300
736700
737700
337600
3E3600
3E3600
3E3600
1E3C00
1E3C00
1C1C00
1C1C00
ENDCHAR
STARTCHAR Wgrave
ENCODING -1
SWIDTH 773 0
DWIDTH 17 0
BBX 17 20 0 0
BITMAP
070000
018000
01C000
000000
000000
E1C380
E1E380
61E300
636300
736300
736700
737700
337600
3E3600
3E3600
3E3600
1E3C00
1E3C00
1C1C00
1C1C00
ENDCHAR
STARTCHAR Ycircumflex
ENCODING -1
SWIDTH 546 0
DWIDTH 12 0
BBX 12 20 0 0
BITMAP
0600
0F00
1980
0000
0000
E070
70E0
70E0
39C0
39C0
1F80
1F80
0F00
0F00
0600
0600
0600
0600
0600
0600
ENDCHAR
STARTCHAR Ygrave
ENCODING -1
SWIDTH 546 0
DWIDTH 12 0
BBX 12 20 0 0
BITMAP
1C00
0E00
0700
0000
0000
E070
70E0
70E0
39C0
39C0
1F80
1F80
0F00
0F00
0600
0600
0600
0600
0600
0600
ENDCHAR
STARTCHAR Zacute
ENCODING -1
SWIDTH 500 0
DWIDTH 11 0
BBX 11 20 0 0
BITMAP
0380
0600
0E00
0000
0000
7FC0
7FC0
03C0
0380
0780
0700
0E00
0E00
1C00
1C00
3800
3800
7000
7FE0
FFE0
ENDCHAR
STARTCHAR Zdotaccent
ENCODING -1
SWIDTH 500 0
DWIDTH 11 0
BBX 11 19 0 0
BITMAP
0E00
0E00
0000
0000
7FC0
7FC0
03C0
0380
0780
0700
0E00
0E00
1C00
1C00
3800
3800
7000
7FE0
FFE0
ENDCHAR
STARTCHAR abreve
ENCODING -1
SWIDTH 456 0
DWIDTH 10 0
BBX 10 16 0 0
BITMAP
3300
3E00
1E00
0000
1E00
7F00
7380
6380
0380
3F80
7F80
F380
E380
E780
7FC0
39C0
ENDCHAR
STARTCHAR aeacute
ENCODING -1
SWIDTH 729 0
DWIDTH 16 0
BBX 14 16 1 0
BITMAP
01C0
0380
0300
0000
3CF0
7FF8
E79C
E39C
031C
3FFC
FFFC
E300
E70C
E79C
FFF8
78F0
ENDCHAR
STARTCHAR amacron
ENCODING -1
SWIDTH 456 0
DWIDTH 10 0
BBX 10 15 0 0
BITMAP
3F00
3F00
0000
1E00
7F00
7380
6380
0380
3F80
7F80
F380
E380
E780
7FC0
39C0
ENDCHAR
STARTCHAR aogonek
ENCODING -1
SWIDTH 456 0
DWIDTH 10 0
BBX 11 16 0 -4
BITMAP
1E00
7F00
7380
6380
0380
3F80
7F80
F380
E380
E780
7FC0
39C0
0180
0180
01E0
00E0
ENDCHAR
STARTCHAR aringacute
ENCODING -1
SWIDTH 500 0
DWIDTH 11 0
BBX 10 20 0 0
BITMAP
0700
0E00
0000
0000
1C00
1200
1C00
0000
1E00
7F00
7380
6380
0380
3F80
7F80
F380
E380
E780
7FC0
39C0
ENDCHAR
STARTCHAR cacute
ENCODING -1
SWIDTH 456 0
DWIDTH 10 0
BBX 8 16 1 0
BITMAP
0E
0C
18
00
3C
7E
E7
E7
E3
E0
E0
E3
E3
E7
7E
3C
ENDCHAR
STARTCHAR ccaron
ENCODING -1
SWIDTH 456 0
DWIDTH 10 0
BBX 8 16 1 0
BITMAP
76
3C
1C
00
3C
7E
E7
E7
E3
E0
E0
E0
E3
E7
7F
3C
ENDCHAR
STARTCHAR ccircumflex
ENCODING -1
SWIDTH 456 0
DWIDTH 10 0
BBX 8 16 1 0
BITMAP
1C
3C
76
00
3C
7E
E7
E7
E3
E0
E0
E3
E3
E7
7E
3C
ENDCHAR
STARTCHAR cdotaccent
ENCODING -1
SWIDTH 456 0
DWIDTH 10 0
BBX 8 16 1 0
BITMAP
18
18
00
00
3C
7E
E7
E7
E3
E0
E0
E3
E3
E7
7E
3C
ENDCHAR
STARTCHAR dcaron
ENCODING -1
SWIDTH 588 0
DWIDTH 13 0
BBX 13 16 1 0
BITMAP
0380
03F8
03F8
03F8
3B90
7FB0
F7A0
E3C0
E380
E380
E380
E380
E380
F780
7F80
3980
ENDCHAR
STARTCHAR dcroat
ENCODING -1
SWIDTH 503 0
DWIDTH 11 0
BBX 10 16 1 0
BITMAP
0380
1FC0
1FC0
0380
3B80
7F80
F780
E380
E380
E380
E380
E380
E380
F780
7F80
3980
ENDCHAR
STARTCHAR dotlessi
ENCODING -1
SWIDTH 228 0
DWIDTH 5 0
BBX 3 12 1 0
BITMAP
E0
E0
E0
E0
E0
E0
E0
E0
E0
E0
E0
E0
ENDCHAR
STARTCHAR ebreve
ENCODING -1
SWIDTH 456 0
DWIDTH 10 0
BBX 8 16 1 0
BITMAP
66
7E
3C
00
3C
7E
E7
E7
C3
FF
FF
C0
E3
E7
7F
3C
ENDCHAR
STARTCHAR ecaron
ENCODING -1
SWIDTH 456 0
DWIDTH 10 0
BBX 8 16 1 0
BITMAP
66
3C
18
00
3C
7E
E7
E7
C3
FF
FF
C0
E3
E7
7F
3C
ENDCHAR
STARTCHAR edotaccent
ENCODING -1
SWIDTH 456 0
DWIDTH 10 0
BBX 8 16 1 0
BITMAP
18
18
00
00
3C
7E
E7
E7
C3
FF
FF
C0
E3
E7
7F
3C
ENDCHAR
STARTCHAR emacron
ENCODING -1
SWIDTH 456 0
DWIDTH 10 0
BBX 8 15 1 0
BITMAP
7E
7E
00
3C
7E
E7
E7
C3
FF
FF
C0
E3
E7
7F
3C
ENDCHAR
STARTCHAR eng
ENCODING -1
SWIDTH 500 0
DWIDTH 11 0
BBX 9 16 1 -4
BITMAP
CF00
FF00
F380
E380
E380
E380
E380
E380
E380
E380
E380
E380
0380
0380
0F80
0F00
ENDCHAR
STARTCHAR eogonek
ENCODING -1
SWIDTH 456 0
DWIDTH 10 0
BBX 8 16 1 -4
BITMAP
3C
7E
E7
E7
C3
FF
FF
C0
E3
E7
7F
3E
0C
18
1E
0E
ENDCHAR
STARTCHAR gbreve
ENCODING -1
SWIDTH 500 0
DWIDTH 11 0
BBX 11 20 0 -4
BITMAP
1100
1F00
0E00
00E0
1FC0
3F80
7380
71C0
71C0
71C0
3F80
3F00
7000
7000
7FC0
7FE0
60E0
E0E0
7FC0
7F80
ENDCHAR
STARTCHAR gcircumflex
ENCODING -1
SWIDTH 500 0
DWIDTH 11 0
BBX 11 20 0 -4
BITMAP
0E00
1B00
1B60
0060
1FC0
3F80
71C0
71C0
71C0
7BC0
3F80
3F00
7000
7000
7FC0
7FE0
60E0
E0E0
7FC0
7F80
ENDCHAR
STARTCHAR gcommaaccent
ENCODING -1
SWIDTH 500 0
DWIDTH 11 0
BBX 11 22 0 -4
BITMAP
0400
0C00
0E00
0E00
00E0
00C0
1FC0
3F80
7380
71C0
71C0
73C0
3F80
3F00
7000
7000
7FC0
7FE0
60E0
E0E0
7FC0
7F80
ENDCHAR
STARTCHAR gdotaccent
ENCODING -1
SWIDTH 500 0
DWIDTH 11 0
BBX 11 20 0 -4
BITMAP
0E00
0E00
00E0
00E0
1FC0
3F80
7380
71C0
71C0
73C0
3F80
3F00
7000
7000
7FC0
7FE0
60E0
E0E0
7FC0
7F80
ENDCHAR
STARTCHAR hbar
ENCODING -1
SWIDTH 500 0
DWIDTH 11 0
BBX 10 16 0 0
BITMAP
7000
FE00
FE00
7000
7780
7F80
7BC0
71C0
71C0
71C0
71C0
71C0
71C0
71C0
71C0
71C0
ENDCHAR
STARTCHAR hcircumflex
ENCODING -1
SWIDTH 500 0
DWIDTH 11 0
BBX 10 20 0 0
BITMAP
7000
D800
D800
0000
7000
7000
7000
7000
7780
7F80
79C0
71C0
71C0
71C0
71C0
71C0
71C0
71C0
71C0
71C0
ENDCHAR
STARTCHAR ibreve
ENCODING -1
SWIDTH 228 0
DWIDTH 5 0
BBX 5 16 0 0
BITMAP
88
F8
70
00
70
70
70
70
70
70
70
70
70
70
70
70
ENDCHAR
STARTCHAR ij
ENCODING -1
SWIDTH 456 0
DWIDTH 10 0
BBX 8 20 1 -4
BITMAP
E7
E7
00
00
E7
E7
E7
E7
E7
E7
E7
E7
E7
E7
E7
E7
07
07
1F
1E
ENDCHAR
STARTCHAR imacron
ENCODING -1
SWIDTH 228 0
DWIDTH 5 0
BBX 5 15 0 0
BITMAP
F8
F8
00
70
70
70
70
70
70
70
70
70
70
70
70
ENDCHAR
STARTCHAR iogonek
ENCODING -1
SWIDTH 228 0
DWIDTH 5 0
BBX 4 20 1 -4
BITMAP
E0
E0
00
00
E0
E0
E0
E0
E0
E0
E0
E0
E0
E0
E0
E0
40
C0
E0
70
ENDCHAR
STARTCHAR itilde
ENCODING -1
SWIDTH 228 0
DWIDTH 5 0
BBX 7 16 -1 0
BITMAP
62
FE
DC
00
38
38
38
38
38
38
38
38
38
38
38
38
ENDCHAR
STARTCHAR jcircumflex
ENCODING -1
SWIDTH 228 0
DWIDTH 5 0
BBX 7 20 -1 -4
BITMAP
38
3C
6E
00
38
38
38
38
38
38
38
38
38
38
38
38
38
38
F8
F0
ENDCHAR
STARTCHAR kcommaaccent
ENCODING -1
SWIDTH 456 0
DWIDTH 10 0
BBX 9 22 1 -6
BITMAP
E000
E000
E000
E000
E380
E700
EE00
EC00
FC00
FC00
FC00
EE00
EE00
E700
E700
E380
0000
0000
1800
1800
0800
1800
ENDCHAR
STARTCHAR kgreenlandic
ENCODING -1
SWIDTH 457 0
DWIDTH 10 0
BBX 9 12 1 0
BITMAP
E380
E700
EE00
EC00
FC00
FC00
FC00
EE00
EE00
E700
E700
E380
ENDCHAR
STARTCHAR lacute
ENCODING -1
SWIDTH 228 0
DWIDTH 5 0
BBX 5 20 1 0
BITMAP
38
60
E0
00
E0
E0
E0
E0
E0
E0
E0
E0
E0
E0
E0
E0
E0
E0
E0
E0
ENDCHAR
STARTCHAR lcaron
ENCODING -1
SWIDTH 315 0
DWIDTH 7 0
BBX 7 16 1 0
BITMAP
E0
EE
EE
EE
E6
E4
EC
E0
E0
E0
E0
E0
E0
E0
E0
E0
ENDCHAR
STARTCHAR lcommaaccent
ENCODING -1
SWIDTH 228 0
DWIDTH 5 0
BBX 3 22 1 -6
BITMAP
E0
E0
E0
E0
E0
E0
E0
E0
E0
E0
E0
E0
E0
E0
E0
E0
00
00
E0
E0
60
C0
ENDCHAR
STARTCHAR ldot
ENCODING -1
SWIDTH 333 0
DWIDTH 7 0
BBX 6 16 1 0
BITMAP
E0
E0
E0
E0
E0
E0
E0
EC
EC
EC
E0
E0
E0
E0
E0
E0
ENDCHAR
STARTCHAR longs
ENCODING -1
SWIDTH 228 0
DWIDTH 5 0
BBX 6 16 0 0
BITMAP
3C
3C
70
70
F0
F0
70
70
70
70
70
70
70
70
70
70
ENDCHAR
STARTCHAR lslash
ENCODING -1
SWIDTH 228 0
DWIDTH 5 0
BBX 6 16 0 0
BITMAP
70
70
70
70
70
74
7C
78
70
F0
F0
F0
70
70
70
70
ENDCHAR
STARTCHAR nacute
ENCODING -1
SWIDTH 500 0
DWIDTH 11 0
BBX 9 16 1 0
BITMAP
0700
0C00
1C00
0000
CF00
FF00
F380
E380
E380
E380
E380
E380
E380
E380
E380
E380
ENDCHAR
STARTCHAR napostrophe
ENCODING -1
SWIDTH 675 0
DWIDTH 15 0
BBX 13 15 1 0
BITMAP
E000
E000
6000
4CE0
0FF0
0F78
0E38
0E38
0E38
0E38
0E38
0E38
0E38
0E38
0E38
ENDCHAR
STARTCHAR ncaron
ENCODING -1
SWIDTH 500 0
DWIDTH 11 0
BBX 9 16 1 0
BITMAP
3600
1600
1C00
0000
CF00
FF00
F380
E380
E380
E380
E380
E380
E380
E380
E380
E380
ENDCHAR
STARTCHAR ncommaaccent
ENCODING -1
SWIDTH 500 0
DWIDTH 11 0
BBX 9 18 1 -6
BITMAP
CF00
FF00
F380
E380
E380
E380
E380
E380
E380
E380
E380
E380
0000
0000
1C00
1C00
0C00
1800
ENDCHAR
STARTCHAR obreve
ENCODING -1
SWIDTH 500 0
DWIDTH 11 0
BBX 9 16 1 0
BITMAP
2200
3E00
1C00
0000
3E00
7F00
F780
E380
E380
E380
E380
E380
E380
F780
7F00
3E00
ENDCHAR
STARTCHAR ohungarumlaut
ENCODING -1
SWIDTH 500 0
DWIDTH 11 0
BBX 9 16 1 0
BITMAP
1F80
1B00
3600
0000
3E00
7F00
F780
E380
E380
E380
E380
E380
E380
F780
7F00
3E00
ENDCHAR
STARTCHAR omacron
ENCODING -1
SWIDTH 500 0
DWIDTH 11 0
BBX 9 15 1 0
BITMAP
3E00
3E00
0000
3E00
7F00
F780
E380
E380
E380
E380
E380
E380
F780
7F00
3E00
ENDCHAR
STARTCHAR oslashacute
ENCODING -1
SWIDTH 500 0
DWIDTH 11 0
BBX 9 16 1 0
BITMAP
0700
0C00
1C00
0080
3F00
7F00
F780
E780
EF80
EF80
FB80
FB80
F380
F780
7F00
7E00
ENDCHAR
STARTCHAR racute
ENCODING -1
SWIDTH 318 0
DWIDTH 7 0
BBX 6 16 1 0
BITMAP
30
60
C0
00
FC
FC
F0
E0
E0
E0
E0
E0
E0
E0
E0
E0
ENDCHAR
STARTCHAR rcaron
ENCODING -1
SWIDTH 318 0
DWIDTH 7 0
BBX 8 16 -1 0
BITMAP
EC
78
38
00
3F
3F
3C
38
38
38
38
38
38
38
38
38
ENDCHAR
STARTCHAR rcommaaccent
ENCODING -1
SWIDTH 318 0
DWIDTH 7 0
BBX 6 18 1 -6
BITMAP
FC
FC
F0
E0
E0
E0
E0
E0
E0
E0
E0
E0
00
00
E0
E0
60
40
ENDCHAR
STARTCHAR sacute
ENCODING -1
SWIDTH 456 0
DWIDTH 10 0
BBX 8 16 1 0
BITMAP
0E
1C
38
00
3C
FE
E7
E7
F0
7E
3F
07
C3
E7
FF
3E
ENDCHAR
STARTCHAR scedilla
ENCODING -1
SWIDTH 456 0
DWIDTH 10 0
BBX 8 16 1 -4
BITMAP
3C
7E
E7
E7
F0
FE
3F
07
C3
E7
FF
3E
10
1C
0C
3C
ENDCHAR
STARTCHAR scircumflex
ENCODING -1
SWIDTH 456 0
DWIDTH 10 0
BBX 8 16 1 0
BITMAP
18
3C
66
00
3C
FE
E7
E7
F0
7E
3F
07
C3
E7
FF
3E
ENDCHAR
STARTCHAR tbar
ENCODING -1
SWIDTH 272 0
DWIDTH 6 0
BBX 6 15 0 0
BITMAP
30
30
70
FC
FC
70
70
FC
FC
70
70
70
70
3C
3C
ENDCHAR
STARTCHAR tcaron
ENCODING -1
SWIDTH 393 0
DWIDTH 9 0
BBX 10 15 0 0
BITMAP
31C0
31C0
71C0
FC80
FD80
7000
7000
7000
7000
7000
7000
7000
7000
3C00
3C00
ENDCHAR
STARTCHAR tcommaaccent
ENCODING -1
SWIDTH 272 0
DWIDTH 6 0
BBX 6 21 0 -6
BITMAP
30
30
70
FC
FC
70
70
70
70
70
70
70
70
3C
3C
00
00
30
30
10
30
ENDCHAR
STARTCHAR ubreve
ENCODING -1
SWIDTH 500 0
DWIDTH 11 0
BBX 9 16 1 0
BITMAP
2200
3E00
1C00
0000
E380
E380
E380
E380
E380
E380
E380
E380
E380
F780
7F80
7980
ENDCHAR
STARTCHAR uhungarumlaut
ENCODING -1
SWIDTH 500 0
DWIDTH 11 0
BBX 9 16 1 0
BITMAP
1F80
1B00
3600
0000
E380
E380
E380
E380
E380
E380
E380
E380
E380
F780
7F80
7980
ENDCHAR
STARTCHAR umacron
ENCODING -1
SWIDTH 500 0
DWIDTH 11 0
BBX 9 15 1 0
BITMAP
3E00
3E00
0000
E380
E380
E380
E380
E380
E380
E380
E380
E380
F780
7F80
7980
ENDCHAR
STARTCHAR uni207F
ENCODING -1
SWIDTH 325 0
DWIDTH 7 0
BBX 5 8 1 8
BITMAP
B8
F8
C8
C8
C8
C8
C8
C8
ENDCHAR
STARTCHAR uogonek
ENCODING -1
SWIDTH 500 0
DWIDTH 11 0
BBX 10 16 1 -4
BITMAP
E380
E380
E380
E380
E380
E380
E380
E380
E380
F780
7F80
7980
0100
0300
03C0
01C0
ENDCHAR
STARTCHAR uring
ENCODING -1
SWIDTH 500 0
DWIDTH 11 0
BBX 9 16 1 0
BITMAP
1C00
3200
1C00
0000
E380
E380
E380
E380
E380
E380
E380
E380
E380
F780
7F80
7980
ENDCHAR
STARTCHAR utilde
ENCODING -1
SWIDTH 500 0
DWIDTH 11 0
BBX 9 16 1 0
BITMAP
3100
7F00
6E00
0000
E380
E380
E380
E380
E380
E380
E380
E380
E380
F780
7F80
7980
ENDCHAR
STARTCHAR wacute
ENCODING -1
SWIDTH 638 0
DWIDTH 14 0
BBX 14 16 0 0
BITMAP
01C0
0380
0300
0000
E39C
E39C
6798
6798
7798
77B8
37F8
3CF0
3CF0
3CF0
3CF0
1CE0
ENDCHAR
STARTCHAR wcircumflex
ENCODING -1
SWIDTH 638 0
DWIDTH 14 0
BBX 14 16 0 0
BITMAP
0300
0780
0CC0
0000
E39C
E39C
6798
6798
7798
77B8
37F8
3CF0
3CF0
3CF0
3CF0
1CE0
ENDCHAR
STARTCHAR wdieresis
ENCODING -1
SWIDTH 638 0
DWIDTH 14 0
BBX 14 16 0 0
BITMAP
0CC0
0CC0
0000
0000
E39C
E39C
6798
6798
7798
77B8
37F8
3CF0
3CF0
3CF0
3CF0
1CE0
ENDCHAR
STARTCHAR wgrave
ENCODING -1
SWIDTH 638 0
DWIDTH 14 0
BBX 14 16 0 0
BITMAP
0E00
0700
0380
0000
E39C
E39C
6798
6798
7798
77B8
37F8
3CF0
3CF0
3CF0
3CF0
1CE0
ENDCHAR
STARTCHAR ycircumflex
ENCODING -1
SWIDTH 456 0
DWIDTH 10 0
BBX 10 20 0 -4
BITMAP
0C00
1E00
3300
0000
E1C0
61C0
7180
7380
3380
3B00
3B00
1B00
1F00
1E00
1E00
0E00
0C00
1C00
7800
7000
ENDCHAR
STARTCHAR ygrave
ENCODING -1
SWIDTH 456 0
DWIDTH 10 0
BBX 10 20 0 -4
BITMAP
3800
1C00
0E00
0000
E1C0
61C0
7180
7380
3380
3B00
3B00
1B00
1F00
1E00
1E00
0E00
0C00
1C00
7800
7000
ENDCHAR
STARTCHAR zacute
ENCODING -1
SWIDTH 410 0
DWIDTH 9 0
BBX 9 16 0 0
BITMAP
0700
0C00
1C00
0000
7F00
7F00
0700
0E00
0E00
1C00
1C00
3800
3800
7000
7F80
FF80
ENDCHAR
STARTCHAR zdotaccent
ENCODING -1
SWIDTH 410 0
DWIDTH 9 0
BBX 9 16 0 0
BITMAP
1C00
1C00
0000
0000
7F00
7F00
0700
0E00
0E00
1C00
1C00
3800
3800
7000
7F80
FF80
ENDCHAR
STARTCHAR uniFB01
ENCODING -1
SWIDTH 500 0
DWIDTH 11 0
BBX 10 16 0 0
BITMAP
3DC0
3DC0
7000
7000
FDC0
FDC0
71C0
71C0
71C0
71C0
71C0
71C0
71C0
71C0
71C0
71C0
ENDCHAR
STARTCHAR uniFB02
ENCODING -1
SWIDTH 500 0
DWIDTH 11 0
BBX 10 16 0 0
BITMAP
3DC0
3DC0
71C0
71C0
FDC0
FDC0
71C0
71C0
71C0
71C0
71C0
71C0
71C0
71C0
71C0
71C0
ENDCHAR
STARTCHAR Delta
ENCODING -1
SWIDTH 588 0
DWIDTH 13 0
BBX 13 15 0 0
BITMAP
0700
0F80
0F80
0D80
1DC0
1DC0
19C0
38E0
38E0
30E0
7060
7070
7FF0
FFF0
FFF8
ENDCHAR
STARTCHAR Omega
ENCODING -1
SWIDTH 768 0
DWIDTH 17 0
BBX 13 16 2 0
BITMAP
0200
1FC0
3FE0
78F0
7070
E030
E038
E038
E038
E038
E030
6030
7070
B068
FDF8
FDF8
ENDCHAR
STARTCHAR pi
ENCODING -1
SWIDTH 627 0
DWIDTH 14 0
BBX 13 12 0 0
BITMAP
FFF8
7FF8
9CE0
1CE0
1CE0
18E0
18E0
18E0
38E0
38E0
38E0
30E0
ENDCHAR
STARTCHAR fraction
ENCODING -1
SWIDTH 137 0
DWIDTH 3 0
BBX 11 15 -4 0
BITMAP
0060
00C0
0080
0100
0300
0200
0600
0400
0C00
0800
1000
3000
2000
6000
C000
ENDCHAR
STARTCHAR oneeighth
ENCODING -1
SWIDTH 684 0
DWIDTH 15 0
BBX 13 15 1 0
BITMAP
6030
E020
6040
60C0
6080
61A0
6178
FBD8
FED8
0458
0C78
08D8
18C8
10F8
2078
ENDCHAR
STARTCHAR threeeighths
ENCODING -1
SWIDTH 684 0
DWIDTH 15 0
BBX 13 15 1 0
BITMAP
F030
F860
9840
30C0
3080
1980
9970
FA58
F6D8
0458
0C78
08D8
18C8
30F8
2078
ENDCHAR
STARTCHAR fiveeighths
ENCODING -1
SWIDTH 684 0
DWIDTH 15 0
BBX 13 15 1 0
BITMAP
F830
F860
C040
F0C0
D880
1980
9B70
F258
06D8
0458
0C78
08D8
10C8
30F8
2078
ENDCHAR
STARTCHAR seveneighths
ENCODING -1
SWIDTH 684 0
DWIDTH 15 0
BBX 13 15 1 0
BITMAP
F860
F840
18C0
1080
3180
2120
6278
66D8
64D8
0C58
0878
18D8
30C8
20F8
6078
ENDCHAR
STARTCHAR exclamdbl
ENCODING -1
SWIDTH 545 0
DWIDTH 12 0
BBX 10 15 1 0
BITMAP
F3C0
F3C0
71C0
6180
6180
6180
6180
6180
6180
6180
6180
0000
F3C0
F3C0
F3C0
ENDCHAR
STARTCHAR minute
ENCODING -1
SWIDTH 194 0
DWIDTH 4 0
BBX 3 4 1 11
BITMAP
E0
C0
C0
C0
ENDCHAR
STARTCHAR second
ENCODING -1
SWIDTH 389 0
DWIDTH 9 0
BBX 6 4 1 11
BITMAP
FC
D8
D8
D8
ENDCHAR
STARTCHAR underscoredbl
ENCODING -1
SWIDTH 500 0
DWIDTH 11 0
BBX 11 3 0 -5
BITMAP
FFE0
0000
FFE0
ENDCHAR
STARTCHAR uni203E
ENCODING -1
SWIDTH 500 0
DWIDTH 11 0
BBX 11 2 0 18
BITMAP
FFE0
FFE0
ENDCHAR
STARTCHAR quotereversed
ENCODING -1
SWIDTH 228 0
DWIDTH 5 0
BBX 3 6 1 9
BITMAP
E0
E0
E0
C0
40
60
ENDCHAR
STARTCHAR franc
ENCODING -1
SWIDTH 503 0
DWIDTH 11 0
BBX 10 15 1 0
BITMAP
FF00
FF00
E000
E000
E6C0
E6C0
FF80
FF00
E700
E700
E700
E700
E700
E700
E700
ENDCHAR
STARTCHAR lira
ENCODING -1
SWIDTH 456 0
DWIDTH 10 0
BBX 10 15 0 0
BITMAP
1F00
3F80
3B80
31C0
3000
FE00
FE00
3000
FE00
FE00
3000
3000
3000
FF80
FF80
ENDCHAR
STARTCHAR peseta
ENCODING -1
SWIDTH 960 0
DWIDTH 21 0
BBX 20 15 1 0
BITMAP
FC6000
FE6000
EF6000
E7FFC0
E7FFE0
E76EE0
EF6E60
FE6F00
FC67C0
E063E0
E060E0
E06E70
E06E60
E07FE0
E03BC0
ENDCHAR
STARTCHAR approxequal
ENCODING -1
SWIDTH 548 0
DWIDTH 12 0
BBX 10 10 1 0
BITMAP
0040
F840
FFC0
CFC0
8380
3040
FC40
FFC0
8FC0
8000
ENDCHAR
STARTCHAR equivalence
ENCODING -1
SWIDTH 478 0
DWIDTH 11 0
BBX 9 12 1 0
BITMAP
FF80
FF80
0000
0000
0000
FF80
FF80
0000
0000
FF80
FF80
FF80
ENDCHAR
STARTCHAR greaterequal
ENCODING -1
SWIDTH 548 0
DWIDTH 12 0
BBX 9 15 2 0
BITMAP
8000
E000
F800
3E00
0F80
0380
0780
1F00
7C00
F000
C000
8000
0000
FF80
FF80
ENDCHAR
STARTCHAR infinity
ENCODING -1
SWIDTH 712 0
DWIDTH 16 0
BBX 14 7 1 3
BITMAP
7CF0
7FF8
C79C
C30C
C798
7DF8
3870
ENDCHAR
STARTCHAR integral
ENCODING -1
SWIDTH 273 0
DWIDTH 6 0
BBX 5 22 1 -3
BITMAP
38
70
60
60
60
60
60
60
60
60
60
60
60
60
60
70
70
70
70
70
F0
E0
ENDCHAR
STARTCHAR intersection
ENCODING -1
SWIDTH 722 0
DWIDTH 16 0
BBX 12 15 2 0
BITMAP
1F80
3FC0
70E0
E070
E070
C070
C070
C070
C070
C070
C070
C070
C070
C070
C070
ENDCHAR
STARTCHAR lessequal
ENCODING -1
SWIDTH 548 0
DWIDTH 12 0
BBX 9 15 2 0
BITMAP
0180
0780
1F00
7C00
F000
C000
E000
F800
3E00
0F80
0380
0080
0000
FF80
FF80
ENDCHAR
STARTCHAR minus
ENCODING -1
SWIDTH 479 0
DWIDTH 11 0
BBX 9 2 1 5
BITMAP
FF80
FF80
ENDCHAR
STARTCHAR notequal
ENCODING -1
SWIDTH 548 0
DWIDTH 12 0
BBX 9 10 2 1
BITMAP
0300
0600
FF80
FF80
0800
1800
1000
FF80
FF80
6000
ENDCHAR
STARTCHAR orthogonal
ENCODING -1
SWIDTH 979 0
DWIDTH 22 0
BBX 15 14 3 0
BITMAP
E000
E000
E000
E000
E000
E000
E000
E000
E000
E000
E000
E000
FFFE
FFFE
ENDCHAR
STARTCHAR partialdiff
ENCODING -1
SWIDTH 494 0
DWIDTH 11 0
BBX 9 16 1 0
BITMAP
7E00
7E00
4700
0300
0380
0380
3B80
7F80
F780
E380
E380
E380
E300
E700
7E00
7C00
ENDCHAR
STARTCHAR product
ENCODING -1
SWIDTH 823 0
DWIDTH 18 0
BBX 14 19 2 -3
BITMAP
FFFC
FFFC
3870
3870
3870
3870
3870
3870
3870
3870
3870
3870
3870
3870
3870
3870
3870
3870
3870
ENDCHAR
STARTCHAR radical
ENCODING -1
SWIDTH 548 0
DWIDTH 12 0
BBX 12 22 0 -3
BITMAP
0030
0030
0030
0030
0030
0020
0060
0060
0060
0060
1060
F840
5840
18C0
1CC0
0CC0
0CC0
0E80
0680
0680
0380
0380
ENDCHAR
STARTCHAR summation
ENCODING -1
SWIDTH 712 0
DWIDTH 16 0
BBX 13 19 2 -3
BITMAP
FFF0
FFF0
7000
3800
3C00
1C00
0E00
0700
0780
0380
0700
0E00
0C00
1C00
3800
7000
FFF8
FFF8
FFF8
ENDCHAR
STARTCHAR uni2219
ENCODING -1
SWIDTH 272 0
DWIDTH 6 0
BBX 2 3 2 6
BITMAP
C0
C0
C0
ENDCHAR
STARTCHAR arrowboth
ENCODING -1
SWIDTH 1000 0
DWIDTH 22 0
BBX 20 8 1 2
BITMAP
080100
180180
3800C0
7FFFE0
FFFFF0
7FFFE0
3801C0
180180
ENDCHAR
STARTCHAR arrowdown
ENCODING -1
SWIDTH 500 0
DWIDTH 11 0
BBX 8 21 2 -5
BITMAP
38
38
38
38
38
38
38
38
38
38
38
38
38
38
38
B9
FE
7C
7C
38
10
ENDCHAR
STARTCHAR arrowleft
ENCODING -1
SWIDTH 1000 0
DWIDTH 22 0
BBX 20 8 1 2
BITMAP
080000
180000
380000
7FFFF0
FFFFF0
7FFFF0
380000
180000
ENDCHAR
STARTCHAR arrowright
ENCODING -1
SWIDTH 1000 0
DWIDTH 22 0
BBX 20 8 1 2
BITMAP
000100
000180
0000C0
FFFFE0
FFFFF0
FFFFE0
0001C0
000180
ENDCHAR
STARTCHAR arrowup
ENCODING -1
SWIDTH 500 0
DWIDTH 11 0
BBX 8 21 2 -5
BITMAP
10
38
7C
FE
FF
39
38
38
38
38
38
38
38
38
38
38
38
38
38
38
38
ENDCHAR
STARTCHAR arrowupdn
ENCODING -1
SWIDTH 500 0
DWIDTH 11 0
BBX 9 21 1 -5
BITMAP
0800
1C00
3E00
7F00
FF00
9C80
1C00
1C00
1C00
1C00
1C00
1C00
1C00
1C00
1C00
9D80
7F00
3E00
3E00
1C00
0800
ENDCHAR
STARTCHAR estimated
ENCODING -1
SWIDTH 600 0
DWIDTH 13 0
BBX 11 12 1 0
BITMAP
1F00
2080
4040
C060
C060
C060
FF80
C000
C000
4060
60C0
1F80
ENDCHAR
STARTCHAR commaaccent
ENCODING -1
SWIDTH 272 0
DWIDTH 6 0
BBX 2 5 2 -6
BITMAP
C0
C0
C0
C0
80
ENDCHAR
STARTCHAR uni02C9
ENCODING -1
SWIDTH 500 0
DWIDTH 11 0
BBX 11 2 0 18
BITMAP
FFE0
FFE0
ENDCHAR
STARTCHAR breve
ENCODING -1
SWIDTH 272 0
DWIDTH 6 0
BBX 6 3 0 13
BITMAP
CC
FC
78
ENDCHAR
STARTCHAR caron
ENCODING -1
SWIDTH 272 0
DWIDTH 6 0
BBX 6 3 0 13
BITMAP
CC
78
30
ENDCHAR
STARTCHAR dotaccent
ENCODING -1
SWIDTH 272 0
DWIDTH 6 0
BBX 2 2 2 14
BITMAP
C0
C0
ENDCHAR
STARTCHAR hungarumlaut
ENCODING -1
SWIDTH 272 0
DWIDTH 6 0
BBX 7 3 0 13
BITMAP
7E
6C
D8
ENDCHAR
STARTCHAR ogonek
ENCODING -1
SWIDTH 272 0
DWIDTH 6 0
BBX 4 4 1 -4
BITMAP
60
E0
E0
70
ENDCHAR
STARTCHAR ring
ENCODING -1
SWIDTH 272 0
DWIDTH 6 0
BBX 4 4 1 12
BITMAP
60
90
90
60
ENDCHAR
STARTCHAR AEacute
ENCODING -1
SWIDTH 819 0
DWIDTH 18 0
BBX 17 20 0 0
BITMAP
007000
00E000
00C000
010000
000000
07FF80
07FF80
07C000
0FC000
0DC000
1CC000
1CFF00
18FF00
38E000
38E000
3FF000
7FF000
607000
E07F80
E03F80
ENDCHAR
STARTCHAR afii00208
ENCODING -1
SWIDTH 819 0
DWIDTH 18 0
BBX 14 2 2 5
BITMAP
FFFC
FFFC
ENDCHAR
STARTCHAR afii61248
ENCODING -1
SWIDTH 789 0
DWIDTH 17 0
BBX 15 16 1 0
BITMAP
3018
7830
CC20
CC60
C040
C0C0
CD80
F980
7B7C
026E
0646
04C6
0CC6
1846
106E
307C
ENDCHAR
STARTCHAR afii61289
ENCODING -1
SWIDTH 490 0
DWIDTH 11 0
BBX 8 16 1 0
BITMAP
1E
3F
33
73
73
77
76
7C
78
70
70
F0
F0
39
3F
1F
ENDCHAR
STARTCHAR afii61352
ENCODING -1
SWIDTH 914 0
DWIDTH 20 0
BBX 18 16 1 0
BITMAP
000300
E0E780
F0ECC0
F0ECC0
F8ECC0
F8ECC0
FCECC0
FEEFC0
EEE780
E7E000
E7EFC0
E3EFC0
E3E000
E1E000
E1E000
E0E000
ENDCHAR
STARTCHAR arrowupdnbse
ENCODING -1
SWIDTH 500 0
DWIDTH 11 0
BBX 9 21 1 -5
BITMAP
0800
1C00
3E00
7F00
FF00
9C80
1C00
1C00
1C00
1C00
1C00
1C00
1C00
DF80
7F00
3E00
1C00
0800
0000
FF80
FF80
ENDCHAR
STARTCHAR house
ENCODING -1
SWIDTH 600 0
DWIDTH 13 0
BBX 10 13 2 0
BITMAP
0800
0C00
1C00
3E00
7700
E380
C1C0
C0C0
C0C0
C0C0
C0C0
FFC0
FFC0
ENDCHAR
STARTCHAR integralbt
ENCODING -1
SWIDTH 604 0
DWIDTH 13 0
BBX 4 25 4 -6
BITMAP
70
70
70
70
70
70
70
70
70
70
70
70
70
70
70
70
70
30
30
30
30
30
70
F0
80
ENDCHAR
STARTCHAR integraltp
ENCODING -1
SWIDTH 604 0
DWIDTH 13 0
BBX 4 25 5 -6
BITMAP
70
F0
E0
E0
E0
E0
E0
E0
E0
E0
E0
E0
E0
E0
E0
E0
E0
E0
E0
E0
E0
60
60
60
60
ENDCHAR
STARTCHAR revlogicalnot
ENCODING -1
SWIDTH 479 0
DWIDTH 11 0
BBX 9 6 1 4
BITMAP
FF80
FF80
C000
C000
C000
C000
ENDCHAR
STARTCHAR uni2215
ENCODING -1
SWIDTH 137 0
DWIDTH 3 0
BBX 11 16 -4 0
BITMAP
0060
00C0
0080
0180
0100
0300
0200
0600
0400
0C00
0800
1000
3000
2000
6000
C000
ENDCHAR
ENDFONT
